<?xml version="1.0" encoding="utf-8"?>
<!-- Generator: Adobe Illustrator 16.0.0, SVG Export Plug-In . SVG Version: 6.00 Build 0)  -->
<!DOCTYPE svg PUBLIC "-//W3C//DTD SVG 1.1//EN" "http://www.w3.org/Graphics/SVG/1.1/DTD/svg11.dtd">
<svg version="1.1" id="Layer_1" xmlns="http://www.w3.org/2000/svg" xmlns:xlink="http://www.w3.org/1999/xlink" x="0px" y="0px"
	 width="800px" height="600px" viewBox="0 0 800 600" enable-background="new 0 0 800 600" xml:space="preserve">
<linearGradient id="SVGID_1_" gradientUnits="userSpaceOnUse" x1="305.7964" y1="116.5015" x2="492.5225" y2="116.5015" gradientTransform="matrix(0.2749 0.9615 -0.9615 0.2749 464.5146 -232.0967)">
	<stop  offset="0" style="stop-color:#272D39"/>
	<stop  offset="0.5394" style="stop-color:#475264"/>
</linearGradient>
<path fill="url(#SVGID_1_)" d="M507.681,267.832l36.796-204.733l-184.565,52.975l-13.163,72.042
	C370.522,203.111,485.367,229.687,507.681,267.832z"/>
<path fill="#FFB01F" d="M244.19,199.385"/>
<path fill="#FFB01F" d="M320.532,330.013l-70.829-78.14c3.758,27.211,5.615,61.945,0.019,98.383L320.532,330.013z"/>
<linearGradient id="SVGID_2_" gradientUnits="userSpaceOnUse" x1="304.7231" y1="412.9209" x2="500.8594" y2="412.9209" gradientTransform="matrix(0.2749 0.9615 -0.9615 0.2749 464.5146 -232.0967)">
	<stop  offset="0" style="stop-color:#FFB01F"/>
	<stop  offset="1" style="stop-color:#FFC253"/>
</linearGradient>
<path fill="url(#SVGID_2_)" d="M249.703,251.873l-76.026-83.876l-39.031,215.155l115.076-32.896
	C255.318,313.818,253.461,279.084,249.703,251.873z"/>
<linearGradient id="SVGID_3_" gradientUnits="userSpaceOnUse" x1="500.8594" y1="366.7314" x2="696.9971" y2="366.7314" gradientTransform="matrix(0.2749 0.9615 -0.9615 0.2749 464.5146 -232.0967)">
	<stop  offset="0" style="stop-color:#FFC253"/>
	<stop  offset="0.9016" style="stop-color:#FFB01F"/>
</linearGradient>
<path fill="url(#SVGID_3_)" d="M320.532,330.013l-70.81,20.243c-5.65,36.803-18.927,75.328-45.551,109.602l77.33,85.315
	L320.532,330.013z"/>
<linearGradient id="SVGID_4_" gradientUnits="userSpaceOnUse" x1="500.8545" y1="426.4336" x2="593.7139" y2="426.4336" gradientTransform="matrix(0.2749 0.9615 -0.9615 0.2749 464.5146 -232.0967)">
	<stop  offset="0" style="stop-color:#FFB01F"/>
	<stop  offset="1" style="stop-color:#FFC253"/>
</linearGradient>
<path fill="url(#SVGID_4_)" d="M249.722,350.256l-115.076,32.896l69.525,76.705C230.795,425.584,244.072,387.059,249.722,350.256z"
	/>
<g>
	
		<linearGradient id="SVGID_5_" gradientUnits="userSpaceOnUse" x1="304.104" y1="22.7554" x2="500.2373" y2="22.7554" gradientTransform="matrix(0.2749 0.9615 -0.9615 0.2749 464.5146 -232.0967)">
		<stop  offset="0" style="stop-color:#FF951F"/>
		<stop  offset="1" style="stop-color:#FFC253"/>
	</linearGradient>
	<path fill="url(#SVGID_5_)" d="M633.278,159.038L544.67,61.284L505.639,276.44l78.832-22.538
		C590.721,204.661,612.236,175.802,633.278,159.038z"/>
	
		<linearGradient id="SVGID_6_" gradientUnits="userSpaceOnUse" x1="500.2373" y1="59.2568" x2="619.9775" y2="59.2568" gradientTransform="matrix(0.2749 0.9615 -0.9615 0.2749 464.5146 -232.0967)">
		<stop  offset="0" style="stop-color:#FFB01F"/>
		<stop  offset="1" style="stop-color:#FFC253"/>
	</linearGradient>
	<path fill="url(#SVGID_6_)" d="M505.639,276.44l89.652,98.909c-12.572-50.229-14.811-89.996-10.82-121.447L505.639,276.44z"/>
	
		<linearGradient id="SVGID_7_" gradientUnits="userSpaceOnUse" x1="422.4463" y1="-37.4072" x2="500.2422" y2="-37.4072" gradientTransform="matrix(0.2749 0.9615 -0.9615 0.2749 464.5146 -232.0967)">
		<stop  offset="0" style="stop-color:#FF8A1F"/>
		<stop  offset="1" style="stop-color:#FFC253"/>
	</linearGradient>
	<path fill="url(#SVGID_7_)" d="M584.471,253.903l107.054-30.604l-58.246-64.262C612.236,175.802,590.721,204.661,584.471,253.903z"
		/>
	
		<linearGradient id="SVGID_8_" gradientUnits="userSpaceOnUse" x1="500.2373" y1="-25.917" x2="696.3779" y2="-25.917" gradientTransform="matrix(0.2749 0.9615 -0.9615 0.2749 464.5146 -232.0967)">
		<stop  offset="0" style="stop-color:#FFD953"/>
		<stop  offset="0.5157" style="stop-color:#FFB01F"/>
	</linearGradient>
	<path fill="url(#SVGID_8_)" d="M691.524,223.299l-107.054,30.604c-3.99,31.451-1.752,71.218,10.82,121.447l57.203,63.109
		L691.524,223.299z"/>
</g>
<path fill="#414A56" d="M481.67,415.704l25.354-148.123c-11.115-38.875-67.176-77.148-160.276-79.465l-40.683,220.802
	C386.532,380.485,445.713,396.063,481.67,415.704z"/>
<linearGradient id="SVGID_9_" gradientUnits="userSpaceOnUse" x1="571.2188" y1="275.5967" x2="697.0039" y2="275.5967" gradientTransform="matrix(0.2749 0.9615 -0.9615 0.2749 464.5146 -232.0967)">
	<stop  offset="0" style="stop-color:#333B48"/>
	<stop  offset="1" style="stop-color:#272D39"/>
</linearGradient>
<path fill="url(#SVGID_9_)" d="M467.388,492.033l13.937-77.545c-35.922-19.505-94.239-35.132-174.715-6.721l-25.108,137.405
	L467.388,492.033z"/>
</svg>
