<?xml version="1.0" encoding="utf-8"?>
<!-- Generator: Adobe Illustrator 16.0.0, SVG Export Plug-In . SVG Version: 6.00 Build 0)  -->
<!DOCTYPE svg PUBLIC "-//W3C//DTD SVG 1.1//EN" "http://www.w3.org/Graphics/SVG/1.1/DTD/svg11.dtd">
<svg version="1.1" id="Layer_1" xmlns="http://www.w3.org/2000/svg" xmlns:xlink="http://www.w3.org/1999/xlink" x="0px" y="0px"
	 width="800px" height="600px" viewBox="0 0 800 600" enable-background="new 0 0 800 600" xml:space="preserve">
<path fill="none" d="M373.749,228.57c-2.414,1.024-4.546,2.397-6.395,4.12c-1.851,1.72-3.419,3.711-4.706,5.964
	c-1.287,2.255-2.333,4.611-3.136,7.071c3.699,0.247,7.118,0.369,10.255,0.369c1.7,0,3.262-0.053,4.746-0.139l0.44-17.823
	C374.548,228.272,374.139,228.403,373.749,228.57z"/>
<path fill="none" d="M358,254.582v2.214c0,2.378,0.191,4.593,0.755,6.641c0.563,2.051,1.363,3.854,2.49,5.411
	c1.125,1.559,2.552,2.768,4.322,3.629c1.768,0.861,3.849,1.291,6.261,1.291c0.675,0,1.34-0.044,2.005-0.11l0.463-18.809
	c-1.534,0.064-3.032,0.101-4.681,0.101C366.156,254.949,361,254.827,358,254.582z"/>
<path fill="none" d="M387.562,243.083c1.81-0.942,3.096-2.093,3.862-3.445c0.762-1.353,1.145-2.849,1.145-4.488
	c0-2.786-0.964-4.838-2.896-6.149c-1.931-1.311-4.584-1.968-7.962-1.968c-2.425,0-4.672,0.381-6.758,1.101l-0.44,17.823
	c2.233-0.128,4.251-0.34,5.991-0.661C383.4,244.764,385.752,244.025,387.562,243.083z"/>
<linearGradient id="SVGID_1_" gradientUnits="userSpaceOnUse" x1="79.1875" y1="299.5576" x2="133.8418" y2="299.5576">
	<stop  offset="0" style="stop-color:#FFB01F"/>
	<stop  offset="1" style="stop-color:#FFC253"/>
</linearGradient>
<path fill="url(#SVGID_1_)" d="M126.907,259.803c-1.603-0.251-3.342-0.457-5.218-0.618c-1.877-0.16-3.731-0.24-5.562-0.24
	c-4.257,0-8.205,0.549-11.844,1.647s-6.775,2.667-9.407,4.703c-2.633,2.038-4.692,4.463-6.179,7.278
	c-1.488,2.815-2.231,5.939-2.231,9.372c0,2.931,0.446,5.586,1.339,7.965c0.893,2.381,2.025,4.532,3.398,6.454
	c1.374,1.923,2.86,3.605,4.463,5.047c1.602,1.442,3.112,2.667,4.532,3.674c1.739,1.235,3.365,2.461,4.875,3.673
	c1.511,1.214,2.815,2.449,3.914,3.708s1.968,2.574,2.609,3.948c0.641,1.373,0.961,2.86,0.961,4.463c0,1.877-0.377,3.422-1.133,4.635
	c-0.755,1.213-1.716,2.162-2.884,2.849c-1.167,0.687-2.472,1.157-3.914,1.408c-1.442,0.252-2.827,0.377-4.154,0.377
	c-2.06,0-4.029-0.229-5.905-0.687c-1.877-0.457-3.616-1.029-5.218-1.716c-1.603-0.688-3.021-1.419-4.257-2.197
	s-2.221-1.487-2.952-2.129l-2.953,12.29c0.641,0.505,1.705,1.02,3.193,1.545c1.487,0.527,3.203,1.008,5.149,1.442
	c1.945,0.435,4.039,0.789,6.283,1.064c2.242,0.274,4.439,0.412,6.591,0.412c3.982,0,7.815-0.493,11.501-1.477
	c3.684-0.984,6.923-2.472,9.715-4.463c2.792-1.991,5.023-4.463,6.694-7.416c1.67-2.952,2.506-6.419,2.506-10.401
	c0-2.884-0.412-5.447-1.236-7.69c-0.824-2.242-1.912-4.279-3.262-6.111c-1.351-1.83-2.896-3.512-4.634-5.046
	c-1.74-1.533-3.548-3.01-5.424-4.429c-1.832-1.373-3.491-2.688-4.978-3.948c-1.488-1.259-2.747-2.528-3.776-3.811
	c-1.03-1.281-1.797-2.609-2.3-3.982c-0.504-1.373-0.71-2.86-0.618-4.463c0.091-1.556,0.48-2.884,1.167-3.982s1.58-1.991,2.678-2.678
	c1.099-0.687,2.323-1.178,3.673-1.477c1.35-0.297,2.757-0.446,4.223-0.446c1.968,0,3.776,0.24,5.424,0.721
	c1.648,0.481,3.112,1.054,4.395,1.717c1.281,0.664,2.334,1.339,3.158,2.025c0.824,0.687,1.396,1.236,1.717,1.648l2.815-12.978
	c-0.595-0.274-1.5-0.56-2.712-0.858C129.917,260.329,128.509,260.055,126.907,259.803z"/>
<linearGradient id="SVGID_2_" gradientUnits="userSpaceOnUse" x1="138.9912" y1="299.5576" x2="173.1709" y2="299.5576">
	<stop  offset="0" style="stop-color:#FFD455"/>
	<stop  offset="1" style="stop-color:#FFB01F"/>
</linearGradient>
<path fill="url(#SVGID_2_)" d="M172.43,325.34l-1.305-13.664l-4.669-43.325c-0.412-3.066-1.442-5.4-3.09-7.003
	s-4.395-2.403-8.239-2.403c-2.06,0-4.006,0.32-5.836,0.961c-1.831,0.642-3.457,1.396-4.875,2.266
	c-1.419,0.87-2.609,1.729-3.57,2.575c-0.961,0.848-1.579,1.477-1.854,1.888l1.991,4.807c0.687-0.412,1.293-0.731,1.82-0.961
	c0.525-0.229,1.178-0.344,1.957-0.344c0.732,0.046,1.327,0.344,1.786,0.893c0.457,0.55,0.846,1.534,1.167,2.952l7.484,40.442
	l5.013,25.748l7.637-0.478c2.117-5.778,3.881-11.247,5.326-16.427L172.43,325.34z"/>
<linearGradient id="SVGID_3_" gradientUnits="userSpaceOnUse" x1="167.8447" y1="299.4888" x2="255.5781" y2="299.4888">
	<stop  offset="0" style="stop-color:#FFD455"/>
	<stop  offset="1" style="stop-color:#FFA400"/>
</linearGradient>
<path fill="url(#SVGID_3_)" d="M253.072,263.098c-0.848-1.304-1.946-2.322-3.296-3.055c-1.351-0.731-2.987-1.099-4.909-1.099
	c-2.884,0-5.104,0.778-6.66,2.334c-1.557,1.557-2.334,3.64-2.334,6.248c0,1.008,0.114,2.05,0.343,3.124
	c0.229,1.076,0.48,2.163,0.755,3.262c0.274,1.099,0.525,2.231,0.755,3.398c0.229,1.168,0.319,2.324,0.274,3.468
	c-0.092,3.251-0.561,6.547-1.408,9.888c-0.847,3.342-1.888,6.58-3.124,9.715c-1.236,3.137-2.598,6.111-4.085,8.927
	c-1.488,2.814-2.941,5.321-4.36,7.518l-5.149,8.103l-1.03-11.693L213.489,260h-17.44l-17.92,49.664l-4.958,13.729
	c-1.445,5.18-3.209,10.585-5.326,16.362l7.743-0.516l11.329-25.969l8.789-20.675l3.09-10.235l0.755,10.229l2.266,21.834
	l3.502,25.609l14.144-0.687l10.986-15.518c1.511-1.968,3.181-4.268,5.012-6.9c1.831-2.632,3.673-5.436,5.527-8.411
	c1.854-2.975,3.662-6.042,5.424-9.2c1.762-3.159,3.33-6.271,4.703-9.338c1.374-3.066,2.46-6.009,3.262-8.823
	c0.8-2.815,1.201-5.344,1.201-7.587c0-2.105-0.206-4.052-0.618-5.837S253.918,264.402,253.072,263.098z"/>
<linearGradient id="SVGID_4_" gradientUnits="userSpaceOnUse" x1="280.8457" y1="258.9443" x2="280.8457" y2="340.1714">
	<stop  offset="0" style="stop-color:#FFD455"/>
	<stop  offset="1" style="stop-color:#FF8500"/>
</linearGradient>
<path fill="url(#SVGID_4_)" d="M294.2,332.687c1.03-1.099,1.728-1.899,2.094-2.403l-1.991-4.463c-1.74,1.466-3.113,2.472-4.12,3.021
	c-1.007,0.549-1.9,0.823-2.678,0.823c-1.832,0-2.496-1.739-1.991-5.218l9.132-63.855l-3.639-1.647l-24.512,3.57l-1.099,5.836
	l8.857,3.982c-0.917,6.592-1.786,12.817-2.609,18.676c-0.824,5.86-1.591,11.25-2.3,16.17c-0.71,4.921-1.339,9.338-1.888,13.252
	c-0.549,3.913-0.985,7.243-1.304,9.99c-0.367,3.158,0.446,5.573,2.438,7.243c1.991,1.671,4.978,2.507,8.96,2.507
	c2.609,0,4.978-0.424,7.106-1.271s3.993-1.819,5.596-2.918C291.854,334.884,293.17,333.785,294.2,332.687z"/>
<linearGradient id="SVGID_5_" gradientUnits="userSpaceOnUse" x1="277.2754" y1="234.4663" x2="299.4531" y2="234.4663">
	<stop  offset="0" style="stop-color:#FFD455"/>
	<stop  offset="1" style="stop-color:#FF8500"/>
</linearGradient>
<path fill="url(#SVGID_5_)" d="M280.125,242.396c0.893,0.916,1.923,1.648,3.09,2.197c1.167,0.55,2.414,0.824,3.742,0.824
	c1.968,0,3.718-0.332,5.252-0.996c1.533-0.662,2.838-1.556,3.914-2.678c1.075-1.121,1.888-2.438,2.437-3.947
	c0.549-1.511,0.847-3.09,0.893-4.738c0-1.235-0.23-2.426-0.687-3.57c-0.458-1.144-1.133-2.163-2.025-3.056s-1.969-1.602-3.227-2.128
	c-1.259-0.525-2.689-0.79-4.292-0.79c-1.694,0-3.261,0.321-4.703,0.962c-1.442,0.642-2.689,1.499-3.742,2.574
	c-1.053,1.076-1.888,2.347-2.506,3.811c-0.618,1.466-0.951,3.021-0.996,4.669c0,1.282,0.251,2.519,0.755,3.708
	C278.534,240.43,279.232,241.481,280.125,242.396z"/>
<linearGradient id="SVGID_6_" gradientUnits="userSpaceOnUse" x1="286.2012" y1="299.0767" x2="364.2002" y2="299.0767">
	<stop  offset="0" style="stop-color:#FFD455"/>
	<stop  offset="0.5236" style="stop-color:#FFA600"/>
</linearGradient>
<path fill="url(#SVGID_6_)" d="M341.268,244.319c0.457-2.014,1.075-3.742,1.854-5.184c0.778-1.442,1.761-2.563,2.952-3.365
	c1.19-0.8,2.678-1.201,4.463-1.201c1.189,0,2.266,0.104,3.227,0.309c0.961,0.206,1.842,0.481,2.643,0.824
	c0.8,0.344,1.499,0.71,2.094,1.099c0.594,0.39,1.099,0.745,1.511,1.064l4.188-11.947c-1.831-0.777-3.753-1.271-5.767-1.477
	c-2.015-0.205-3.96-0.309-5.836-0.309c-3.982,0-7.69,0.79-11.123,2.369s-6.489,3.754-9.167,6.522
	c-2.678,2.771-4.933,6.008-6.763,9.716c-1.831,3.708-3.089,7.689-3.776,11.947l-0.824,5.149l-9.75,4.62L309.958,271h8.995
	l-9.475,77.91c-0.642,4.714-1.648,8.205-3.021,10.77c-1.374,2.563-3.159,3.771-5.356,3.771c-0.824,0-1.819-0.174-2.987-0.448
	c-1.167-0.274-2.311-0.603-3.433-0.945c-1.121-0.344-2.104-0.696-2.952-1.039c-0.847-0.344-1.384-0.565-1.614-0.657l-3.914,12.356
	c0.549,0.138,1.271,0.284,2.163,0.445s1.888,0.296,2.986,0.411c1.099,0.113,2.255,0.217,3.468,0.309
	c1.213,0.092,2.438,0.138,3.673,0.138c4.485,0,8.502-1.099,12.05-3.296c3.547-2.197,6.626-5.115,9.235-8.754
	c2.609-3.64,4.738-7.84,6.386-12.6c1.648-4.762,2.792-9.433,3.433-14.605L337.354,271h14.831l1.648-11h-14.968l1.236-8.698
	C340.42,248.83,340.81,246.334,341.268,244.319z"/>
<linearGradient id="SVGID_7_" gradientUnits="userSpaceOnUse" x1="357.3345" y1="291.0859" x2="401.2773" y2="291.0859">
	<stop  offset="0.1457" style="stop-color:#FFA804"/>
	<stop  offset="0.1693" style="stop-color:#FFA600"/>
	<stop  offset="0.7323" style="stop-color:#FFD455"/>
</linearGradient>
<path fill="url(#SVGID_7_)" d="M378.345,312.088L384.044,270h15.723l1.511-10h-15.93l2.267-18h-10.094
	c-0.687,1-1.431,3.15-2.231,4.936s-1.647,3.396-2.54,5.044c-0.893,1.647-1.797,3.116-2.712,4.512
	c-0.917,1.396-1.832,2.503-2.747,3.372l-8.376,3.283L357.334,270h8.239l-5.836,44.766c-0.367,2.701-0.642,4.818-0.824,6.421
	c-0.184,1.603-0.321,2.855-0.412,3.793c-0.092,0.938-0.149,1.594-0.171,1.981c-0.024,0.39-0.035,0.694-0.035,0.923
	c0,2.335,0.354,4.29,1.064,5.869c0.709,1.579,1.67,2.848,2.884,3.81c1.212,0.961,2.597,1.636,4.154,2.025
	c1.556,0.388,3.181,0.584,4.875,0.584c2.929,0,5.722-0.356,8.377-1.065c2.654-0.709,5.069-1.602,7.243-2.678
	c2.174-1.075,4.074-2.242,5.699-3.502c1.624-1.259,2.895-2.438,3.811-3.536l-1.511-5.424c-0.823,0.641-1.763,1.247-2.814,1.819
	c-1.054,0.572-2.129,1.064-3.228,1.476c-1.099,0.412-2.197,0.745-3.296,0.996c-1.099,0.252-2.083,0.378-2.952,0.378
	c-2.06,0-3.467-0.435-4.223-1.305c-0.755-0.869-1.133-2.403-1.133-4.601c0-1.236,0.091-2.688,0.274-4.428
	C377.703,316.563,377.978,314.516,378.345,312.088z"/>
<path fill="none" d="M420.709,299.854c1.556-0.091,3.271-0.366,5.149-0.824c1.876-0.457,3.753-1.121,5.63-1.991
	c1.877-0.869,3.696-1.91,5.459-3.124c1.762-1.212,3.307-2.62,4.635-4.223c1.327-1.602,2.391-3.364,3.192-5.287
	c0.801-1.922,1.178-4.027,1.133-6.316c-0.092-3.387-0.732-5.881-1.923-7.484c-1.19-1.602-2.86-2.403-5.012-2.403
	c-2.015,0-3.845,0.505-5.493,1.511c-1.647,1.008-3.113,2.335-4.395,3.982c-1.281,1.648-2.415,3.56-3.398,5.733
	c-0.984,2.175-1.809,4.44-2.472,6.798c-0.664,2.357-1.201,4.715-1.613,7.071c-0.157,0.898-0.292,1.764-0.417,2.613
	c-0.115,0.866-0.229,1.734-0.339,2.604C420.796,298.969,420.748,299.417,420.709,299.854z"/>
<path fill="none" d="M421.185,295.91c-0.129,0.895-0.245,1.766-0.339,2.604C420.956,297.645,421.069,296.776,421.185,295.91z"/>
<linearGradient id="SVGID_8_" gradientUnits="userSpaceOnUse" x1="418.6582" y1="300.0947" x2="464.4482" y2="300.0947">
	<stop  offset="0" style="stop-color:#272D39"/>
	<stop  offset="0.5394" style="stop-color:#475264"/>
</linearGradient>
<path fill="url(#SVGID_8_)" d="M429.223,306.893c3.203-0.572,6.431-1.396,9.682-2.472c3.249-1.075,6.43-2.448,9.544-4.12
	c3.112-1.67,5.858-3.661,8.239-5.974c2.379-2.311,4.279-4.943,5.698-7.896c1.419-2.953,2.105-6.26,2.061-9.922
	c-0.047-2.426-0.493-4.691-1.339-6.798c-0.848-2.104-2.141-3.924-3.88-5.458c-1.74-1.533-3.938-2.747-6.592-3.64
	c-2.655-0.893-5.791-1.339-9.406-1.339c-5.838,0-11.267,1.241-16.293,3.698c-2.053,9.719-4.17,21.128-5.752,32.937
	c0.125-0.85,0.26-1.715,0.417-2.613c0.412-2.356,0.949-4.714,1.613-7.071c0.663-2.357,1.487-4.623,2.472-6.798
	c0.983-2.174,2.117-4.085,3.398-5.733c1.281-1.647,2.747-2.975,4.395-3.982c1.648-1.006,3.479-1.511,5.493-1.511
	c2.151,0,3.821,0.802,5.012,2.403c1.19,1.604,1.831,4.098,1.923,7.484c0.045,2.289-0.332,4.395-1.133,6.316
	c-0.802,1.923-1.865,3.686-3.192,5.287c-1.328,1.603-2.873,3.011-4.635,4.223c-1.763,1.214-3.582,2.255-5.459,3.124
	c-1.877,0.87-3.754,1.534-5.63,1.991c-1.878,0.458-3.594,0.733-5.149,0.824c0.039-0.438,0.087-0.886,0.137-1.34
	c-1.759,13.918-2.714,28.249-1.885,40.907c3.039,0.994,6.506,1.492,10.399,1.492c3.936,0,7.563-0.527,10.883-1.579
	c3.318-1.053,6.271-2.369,8.857-3.948c2.585-1.579,4.782-3.25,6.591-5.013c1.808-1.761,3.193-3.375,4.154-4.84l-3.845-6.454
	c-1.374,1.465-2.85,2.849-4.429,4.153s-3.273,2.449-5.081,3.434c-1.809,0.984-3.731,1.763-5.768,2.334
	c-2.037,0.573-4.2,0.858-6.488,0.858c-2.473,0-4.601-0.595-6.386-1.785c-1.785-1.189-3.228-2.791-4.326-4.807
	c-1.099-2.014-1.888-4.348-2.368-7.003c-0.48-2.654-0.676-5.47-0.584-8.445C423.135,307.774,426.019,307.465,429.223,306.893z"/>
<linearGradient id="SVGID_9_" gradientUnits="userSpaceOnUse" x1="400.4502" y1="301.1973" x2="427.2109" y2="301.1973">
	<stop  offset="0" style="stop-color:#333B48"/>
	<stop  offset="1" style="stop-color:#272D39;stop-opacity:0.9"/>
</linearGradient>
<path fill="url(#SVGID_9_)" d="M421.058,298.515c0.094-0.839,0.211-1.71,0.342-2.604c1.599-11.809,3.738-23.218,5.812-32.937
	c-0.178,0.086-0.358,0.161-0.534,0.25c-5.227,2.633-9.782,6.237-13.667,10.814s-6.937,9.921-9.156,16.032
	c-2.221,6.11-3.354,12.646-3.4,19.603c-0.046,3.938,0.462,7.771,1.527,11.501c1.063,3.731,2.763,7.062,5.098,9.99
	c2.336,2.93,5.365,5.287,9.088,7.072c0.945,0.452,1.942,0.848,2.987,1.186C418.315,326.764,419.279,312.433,421.058,298.515z"/>
<path fill="none" d="M517.315,268.407c-3.021,0-5.711,0.63-8.068,1.889c-2.357,1.26-4.44,2.952-6.248,5.081
	c-1.809,2.128-3.354,4.612-4.635,7.449c-1.282,2.839-2.334,5.814-3.158,8.926c-0.824,3.114-1.419,6.272-1.785,9.476
	c-0.367,3.205-0.549,6.271-0.549,9.201c0,6.134,0.915,10.86,2.746,14.178c1.83,3.319,4.349,4.979,7.553,4.979
	c1.556,0,3.066-0.274,4.531-0.824c1.465-0.549,2.85-1.271,4.154-2.163s2.506-1.898,3.604-3.021c1.099-1.121,2.061-2.254,2.884-3.399
	l7.484-50.054c-1.236-0.641-2.564-1.087-3.982-1.339C520.428,268.534,518.917,268.407,517.315,268.407z"/>
<path fill="none" d="M601.563,268.407c-2.977,0-5.654,0.63-8.033,1.889c-2.381,1.26-4.486,2.952-6.317,5.081
	c-1.831,2.128-3.388,4.612-4.669,7.449c-1.281,2.839-2.334,5.814-3.158,8.926c-0.824,3.114-1.431,6.272-1.819,9.476
	c-0.39,3.205-0.584,6.271-0.584,9.201c0,6.134,0.938,10.86,2.815,14.178c1.876,3.319,4.417,4.979,7.621,4.979
	c1.419,0,2.815-0.229,4.188-0.687c1.373-0.457,2.678-1.064,3.914-1.819c1.235-0.756,2.403-1.637,3.502-2.644s2.082-2.036,2.952-3.09
	l7.484-51.496c-1.191-0.503-2.438-0.869-3.742-1.099C604.412,268.522,603.027,268.407,601.563,268.407z"/>
<path fill="none" d="M521.847,268.785c-1.419-0.251-2.93-0.378-4.531-0.378c-3.021,0-5.711,0.63-8.068,1.889
	c-2.357,1.26-4.44,2.952-6.248,5.081c-1.809,2.128-3.354,4.612-4.635,7.449c-1.282,2.839-2.334,5.814-3.158,8.926
	c-0.824,3.114-1.419,6.272-1.785,9.476c-0.367,3.205-0.549,6.271-0.549,9.201c0,6.134,0.915,10.86,2.746,14.178
	c1.83,3.319,4.349,4.979,7.553,4.979c1.556,0,3.066-0.274,4.531-0.824c1.465-0.549,2.85-1.271,4.154-2.163s2.506-1.898,3.604-3.021
	c1.099-1.121,2.061-2.254,2.884-3.399l7.484-50.054C524.593,269.483,523.265,269.037,521.847,268.785z"/>
<linearGradient id="SVGID_10_" gradientUnits="userSpaceOnUse" x1="527.6768" y1="320.9014" x2="465.6713" y2="258.8959">
	<stop  offset="0" style="stop-color:#272D39"/>
	<stop  offset="0.0079" style="stop-color:#475264"/>
</linearGradient>
<path fill="url(#SVGID_10_)" d="M523.22,259.585c-1.373-0.16-2.724-0.24-4.051-0.24c-5.036,0-9.659,0.721-13.869,2.162
	c-4.212,1.442-7.999,3.423-11.364,5.939c-3.364,2.518-6.328,5.459-8.892,8.823s-4.692,6.969-6.385,10.813
	c-1.694,3.846-2.965,7.84-3.812,11.981c-0.847,4.144-1.27,8.229-1.27,12.257c0,4.074,0.435,7.896,1.305,11.466
	c0.868,3.57,2.242,6.672,4.119,9.304c1.877,2.633,4.279,4.703,7.21,6.214c2.929,1.511,6.454,2.266,10.573,2.266
	c2.609,0,5.035-0.332,7.278-0.995c2.242-0.663,4.291-1.521,6.146-2.575c1.854-1.053,3.501-2.254,4.943-3.604
	c0.683-0.639,1.317-1.28,1.912-1.925l10.207-71.233C525.942,259.962,524.593,259.745,523.22,259.585z M515.461,323.577
	c-1.099,1.122-2.3,2.128-3.604,3.021s-2.689,1.614-4.154,2.163c-1.465,0.55-2.976,0.824-4.531,0.824
	c-3.204,0-5.723-1.659-7.553-4.979c-1.831-3.317-2.746-8.044-2.746-14.178c0-2.93,0.182-5.996,0.549-9.201
	c0.366-3.203,0.961-6.361,1.785-9.476c0.824-3.111,1.876-6.087,3.158-8.926c1.281-2.837,2.826-5.321,4.635-7.449
	c1.808-2.129,3.891-3.821,6.248-5.081c2.357-1.259,5.047-1.889,8.068-1.889c1.602,0,3.112,0.127,4.531,0.378
	c1.418,0.252,2.746,0.698,3.982,1.339l-7.484,50.054C517.521,321.323,516.56,322.456,515.461,323.577z"/>
<linearGradient id="SVGID_11_" gradientUnits="userSpaceOnUse" x1="506.0625" y1="329.3506" x2="561.2076" y2="233.8364">
	<stop  offset="0" style="stop-color:#272D39"/>
	<stop  offset="0.5394" style="stop-color:#475264"/>
</linearGradient>
<path fill="url(#SVGID_11_)" d="M540.935,329.447c-0.916,0.412-1.694,0.618-2.335,0.618c-0.916,0-1.533-0.48-1.854-1.442
	c-0.32-0.961-0.367-2.266-0.137-3.913l14.075-96.95l-3.776-1.854l-24.581,2.884l-1.373,5.699l9.75,2.952l-3.433,22.796
	l-10.207,71.233c0.662-0.717,1.275-1.438,1.83-2.16c0,3.845,0.834,6.684,2.506,8.514c1.671,1.83,4.313,2.746,7.931,2.746
	c2.426,0,4.635-0.401,6.626-1.201c1.991-0.801,3.729-1.728,5.218-2.781c1.487-1.052,2.7-2.094,3.639-3.124
	c0.938-1.029,1.591-1.773,1.957-2.231l-1.991-4.325C543.132,328.189,541.85,329.035,540.935,329.447z"/>
<path fill="none" d="M601.563,268.407c-2.977,0-5.654,0.63-8.033,1.889c-2.381,1.26-4.486,2.952-6.317,5.081
	c-1.831,2.128-3.388,4.612-4.669,7.449c-1.281,2.839-2.334,5.814-3.158,8.926c-0.824,3.114-1.431,6.272-1.819,9.476
	c-0.39,3.205-0.584,6.271-0.584,9.201c0,6.134,0.938,10.86,2.815,14.178c1.876,3.319,4.417,4.979,7.621,4.979
	c1.419,0,2.815-0.229,4.188-0.687c1.373-0.457,2.678-1.064,3.914-1.819c1.235-0.756,2.403-1.637,3.502-2.644s2.082-2.036,2.952-3.09
	l7.484-51.496c-1.191-0.503-2.438-0.869-3.742-1.099C604.412,268.522,603.027,268.407,601.563,268.407z"/>
<linearGradient id="SVGID_12_" gradientUnits="userSpaceOnUse" x1="632.1836" y1="262.1582" x2="541.4143" y2="352.9275">
	<stop  offset="0" style="stop-color:#333B48;stop-opacity:0.8"/>
	<stop  offset="1" style="stop-color:#272D39"/>
</linearGradient>
<path fill="url(#SVGID_12_)" d="M619.483,262.365c-2.061-0.731-4.532-1.418-7.416-2.06c-2.884-0.641-5.768-0.961-8.651-0.961
	c-4.989,0-9.578,0.721-13.767,2.162c-4.188,1.442-7.988,3.423-11.397,5.939c-3.41,2.518-6.409,5.459-8.994,8.823
	c-2.587,3.364-4.75,6.969-6.489,10.813c-1.74,3.846-3.055,7.84-3.948,11.981c-0.893,4.144-1.338,8.229-1.338,12.257
	c0,4.074,0.457,7.896,1.373,11.466c0.915,3.57,2.334,6.672,4.257,9.304c1.923,2.633,4.36,4.703,7.313,6.214
	s6.488,2.266,10.608,2.266c2.06,0,4.017-0.206,5.87-0.617c1.854-0.412,3.593-0.984,5.218-1.717c1.625-0.731,3.125-1.579,4.498-2.541
	c1.373-0.961,2.631-1.967,3.776-3.021l-0.104,0.747c6.761-4.002,14.271-7.481,19.862-9.876l9.216-64.201L619.483,262.365z
	 M601.975,321.346c-0.87,1.054-1.854,2.083-2.952,3.09s-2.267,1.888-3.502,2.644c-1.236,0.755-2.541,1.362-3.914,1.819
	c-1.373,0.458-2.77,0.687-4.188,0.687c-3.204,0-5.745-1.659-7.621-4.979c-1.878-3.317-2.815-8.044-2.815-14.178
	c0-2.93,0.194-5.996,0.584-9.201c0.389-3.203,0.995-6.361,1.819-9.476c0.824-3.111,1.877-6.087,3.158-8.926
	c1.281-2.837,2.838-5.321,4.669-7.449c1.831-2.129,3.937-3.821,6.317-5.081c2.379-1.259,5.057-1.889,8.033-1.889
	c1.465,0,2.85,0.115,4.154,0.344c1.305,0.229,2.551,0.596,3.742,1.099L601.975,321.346z"/>
<linearGradient id="SVGID_13_" gradientUnits="userSpaceOnUse" x1="612.5283" y1="386.3574" x2="586.5445" y2="341.3521">
	<stop  offset="0" style="stop-color:#333B48;stop-opacity:0.8"/>
	<stop  offset="1" style="stop-color:#272D39"/>
</linearGradient>
<path fill="url(#SVGID_13_)" d="M598.129,349.153c-0.411,2.975-0.961,5.39-1.647,7.244c-0.687,1.854-1.637,3.317-2.85,4.394
	c-1.213,1.075-2.712,1.808-4.497,2.197c-1.785,0.389-3.982,0.584-6.592,0.584c-1.922,0-3.868-0.229-5.836-0.687
	c-1.969-0.458-3.822-0.996-5.562-1.614c-1.74-0.617-3.273-1.259-4.601-1.922c-1.328-0.664-2.289-1.18-2.884-1.545l-3.501,13.869
	c0.687,0.32,1.647,0.641,2.884,0.962c1.235,0.319,2.631,0.617,4.188,0.893c1.556,0.274,3.193,0.503,4.909,0.687
	c1.717,0.182,3.376,0.274,4.979,0.274c2.7,0,5.493-0.206,8.377-0.618s5.721-1.088,8.514-2.025c2.791-0.938,5.469-2.175,8.033-3.708
	c2.563-1.534,4.875-3.41,6.935-5.63c2.061-2.221,3.812-4.818,5.253-7.793c1.441-2.977,2.414-6.386,2.918-10.23l3.006-20.938
	c-5.591,2.395-13.102,5.874-19.862,9.876L598.129,349.153z"/>
<path fill="none" d="M659.374,307.938c0.343-0.059,0.684-0.113,1.025-0.161c-0.342,0.014-0.692,0.037-1.024,0.043
	C659.374,307.858,659.375,307.897,659.374,307.938z"/>
<path fill="none" d="M675.751,293.915c1.762-1.212,3.307-2.62,4.635-4.223c1.327-1.602,2.392-3.364,3.192-5.287
	c0.801-1.922,1.178-4.027,1.133-6.316c-0.092-3.387-0.732-5.881-1.922-7.484c-1.191-1.602-2.861-2.403-5.013-2.403
	c-2.015,0-3.845,0.505-5.493,1.511c-1.647,1.008-3.113,2.335-4.394,3.982c-1.282,1.648-2.415,3.56-3.399,5.733
	c-0.984,2.175-1.809,4.44-2.472,6.798c-0.664,2.357-1.201,4.715-1.613,7.071c-0.412,2.358-0.71,4.544-0.893,6.558
	c1.556-0.091,3.272-0.366,5.149-0.824c1.877-0.457,3.753-1.121,5.63-1.991C672.169,296.17,673.988,295.129,675.751,293.915z"/>
<linearGradient id="SVGID_14_" gradientUnits="userSpaceOnUse" x1="639.252" y1="307.6182" x2="703.2567" y2="307.6182">
	<stop  offset="0" style="stop-color:#333B48;stop-opacity:0.8"/>
	<stop  offset="1" style="stop-color:#272D39"/>
</linearGradient>
<path fill="url(#SVGID_14_)" d="M664.204,307.46c-1.267,0.031-2.537,0.139-3.805,0.316
	C661.603,307.725,662.869,307.619,664.204,307.46z"/>
<linearGradient id="SVGID_15_" gradientUnits="userSpaceOnUse" x1="690.2256" y1="310.3008" x2="644.3307" y2="336.7982">
	<stop  offset="0" style="stop-color:#333B48;stop-opacity:0.8"/>
	<stop  offset="1" style="stop-color:#272D39"/>
</linearGradient>
<path fill="url(#SVGID_15_)" d="M640.768,321.174c1.053,3.731,2.735,7.062,5.047,9.99c2.312,2.93,5.31,5.287,8.995,7.072
	c3.684,1.785,8.136,2.678,13.354,2.678c3.936,0,7.563-0.527,10.883-1.579c3.318-1.053,6.271-2.369,8.857-3.948
	c2.585-1.579,4.782-3.25,6.591-5.013c1.808-1.761,3.193-3.375,4.154-4.84l-3.845-6.454c-1.373,1.465-2.85,2.849-4.429,4.153
	s-3.273,2.449-5.081,3.434c-1.809,0.984-3.731,1.763-5.768,2.334c-2.037,0.573-4.2,0.858-6.488,0.858
	c-2.472,0-4.601-0.595-6.386-1.785c-1.785-1.189-3.228-2.791-4.325-4.807c-1.099-2.014-1.889-4.348-2.369-7.003
	c-0.475-2.619-0.667-5.396-0.585-8.327c-7.111,1.201-14.061,4.451-19.731,7.815C639.895,317.583,640.265,319.391,640.768,321.174z"
	/>
<linearGradient id="SVGID_16_" gradientUnits="userSpaceOnUse" x1="639.2373" y1="287.5142" x2="703.252" y2="287.5142">
	<stop  offset="0" style="stop-color:#333B48;stop-opacity:0.8"/>
	<stop  offset="1" style="stop-color:#272D39"/>
</linearGradient>
<path fill="url(#SVGID_16_)" d="M677.708,304.421c3.249-1.075,6.431-2.448,9.544-4.12c3.112-1.67,5.858-3.661,8.239-5.974
	c2.38-2.311,4.279-4.943,5.699-7.896c1.418-2.953,2.104-6.26,2.06-9.922c-0.046-2.426-0.492-4.691-1.339-6.798
	c-0.848-2.104-2.141-3.924-3.88-5.458c-1.74-1.533-3.938-2.747-6.591-3.64c-2.655-0.893-5.792-1.339-9.407-1.339
	c-6.042,0-11.649,1.316-16.821,3.948c-5.174,2.633-9.682,6.237-13.526,10.814c-3.846,4.577-6.866,9.921-9.063,16.032
	c-2.197,6.11-3.319,12.646-3.364,19.603c-0.023,2.056-0.078,4.081,0.197,6.08c5.672-3.364,12.545-6.614,19.545-7.815
	c0-0.04,0-0.079,0-0.118c1-0.006,0.869-0.029,1.213-0.043c1.266-0.178,2.631-0.285,3.897-0.316c1.224-0.147,2.535-0.329,3.869-0.567
	C671.184,306.32,674.457,305.496,677.708,304.421z M659.513,299.854c0.183-2.014,0.48-4.199,0.893-6.558
	c0.412-2.356,0.949-4.714,1.613-7.071c0.663-2.357,1.487-4.623,2.472-6.798c0.984-2.174,2.117-4.085,3.399-5.733
	c1.28-1.647,2.746-2.975,4.394-3.982c1.648-1.006,3.479-1.511,5.493-1.511c2.151,0,3.821,0.802,5.013,2.403
	c1.189,1.604,1.83,4.098,1.922,7.484c0.045,2.289-0.332,4.395-1.133,6.316c-0.801,1.923-1.865,3.686-3.192,5.287
	c-1.328,1.603-2.873,3.011-4.635,4.223c-1.763,1.214-3.582,2.255-5.459,3.124c-1.877,0.87-3.753,1.534-5.63,1.991
	C662.785,299.488,661.068,299.764,659.513,299.854z"/>
<path fill="none" d="M103.22,310h-2.32c0.385,1,0.965,2.09,1.74,3.248c0.772,1.16,1.643,2.376,2.61,3.438
	c0.965,1.064,2.053,2.007,3.263,2.733c1.208,0.726,2.488,1.113,3.843,1.113c0.772,0,1.545-0.133,2.32-0.423
	c1.835-0.675,3.285-1.926,4.35-3.763c1.063-1.836,1.835-4.008,2.32-6.522c-2.805,0.289-5.705,0.257-8.7,0.305
	C109.648,310.18,106.505,310,103.22,310z"/>
</svg>
