<?xml version="1.0" encoding="utf-8"?>
<!-- Generator: Adobe Illustrator 16.0.0, SVG Export Plug-In . SVG Version: 6.00 Build 0)  -->
<!DOCTYPE svg PUBLIC "-//W3C//DTD SVG 1.1//EN" "http://www.w3.org/Graphics/SVG/1.1/DTD/svg11.dtd">
<svg version="1.1" id="Layer_1" xmlns="http://www.w3.org/2000/svg" xmlns:xlink="http://www.w3.org/1999/xlink" x="0px" y="0px"
	 width="800px" height="600px" viewBox="0 0 800 600" enable-background="new 0 0 800 600" xml:space="preserve">
<linearGradient id="SVGID_1_" gradientUnits="userSpaceOnUse" x1="318.6221" y1="343.5078" x2="373.5707" y2="438.6817">
	<stop  offset="0.2835" style="stop-color:#FFA61F"/>
	<stop  offset="0.4882" style="stop-color:#FFB52D"/>
	<stop  offset="0.6654" style="stop-color:#FFC62E"/>
</linearGradient>
<path display="none" fill="url(#SVGID_1_)" d="M376.384,414.781c-1.258,3.676-2.609,7.18-4.061,10.467
	c-1.45,3.285-2.997,6.32-4.64,9.075c-1.645,2.755-3.384,5.009-5.221,6.749c-1.064,1.065-2.174,1.599-3.334,1.599
	c-1.547,0-2.805-1.159-3.771-3.48c-0.677-1.449-1.014-3.718-1.014-6.813c0-2.224,0.169-4.905,0.508-8.048
	c0.337-3.14,0.797-6.743,1.376-10.803c0.772-4.445,1.452-8.433,2.03-11.964c0.581-3.527,1.233-7.692,1.958-12.093
	c0.725-4.396,1.473-8.471,2.247-13.471h8.265l0.436-2h-8.266c0.014,0,0.028-0.085,0.042-0.178
	c-7.357,8.309-14.953,17.578-22.132,27.396c-0.031,0.186-0.063,0.406-0.094,0.589c-0.581,3.53-1.258,7.589-2.031,12.132
	c-0.485,2.609-0.847,5.086-1.087,7.406c-0.244,2.319-0.364,4.501-0.364,6.531c0,6.768,1.378,11.822,4.134,15.157
	c2.755,3.335,7.08,5.003,12.978,5.003c3.286,0,6.356-1.424,9.209-4.276c2.849-2.85,5.46-6.428,7.83-10.729
	c2.367-4.301,4.469-9.089,6.308-14.262c1.835-5.171,3.382-10.77,4.64-14.77h-2.466C378.799,407,377.64,411.108,376.384,414.781z"/>
<linearGradient id="SVGID_2_" gradientUnits="userSpaceOnUse" x1="416.4199" y1="410.3545" x2="464.2891" y2="410.3545">
	<stop  offset="0" style="stop-color:#272D39"/>
	<stop  offset="0.8071" style="stop-color:#4A5363"/>
</linearGradient>
<path display="none" fill="url(#SVGID_2_)" d="M463.347,384.146c-0.365-0.368-0.844-0.555-1.438-0.555
	c-0.199,0-0.695,0.169-1.489,0.504c-0.53,0.942-1.126,2.051-1.786,3.327c-0.662,1.277-1.258,2.419-1.786,3.427
	c-1.126,2.218-2.222,4.688-3.575,7.409c-1.357,2.722-3.271,5.493-4.271,8.315v-0.101c-1,2.151-2.842,4.521-4.461,7.106
	c-1.621,2.588-3.48,5.007-5.431,7.258c-1.952,2.252-4.09,4.149-6.338,5.695c-2.249,1.546-4.648,2.353-7.162,2.419
	c-1.588-0.134-2.92-0.555-3.977-1.26c-1.06-0.706-1.891-1.613-2.485-2.722c-0.596-1.109-1.013-2.352-1.244-3.729
	c-0.206-1.226-0.307-2.499-0.329-3.805c-0.509,6.973-0.914,13.652-1.153,19.646c0.403,0.022,0.814,0.034,1.232,0.034
	c4.63,0,8.748-0.942,12.354-2.823c3.604-1.88,6.812-4.267,9.624-7.156c2.812-2.889,5.309-6.099,7.492-9.627
	c2.183-3.527,4.168-6.904,5.953-10.13c2.117-3.695,4.051-7.273,5.805-10.735c1.752-3.46,3.225-6.434,4.415-8.921l0.993-2.218
	C464.023,384.97,463.709,384.517,463.347,384.146z"/>
<g display="none">
	<rect x="-61.667" y="329.667" display="inline" fill="none" width="651" height="152"/>
	<text transform="matrix(1.03 0 0 1.05 128.667 437.9541)" display="inline"><tspan x="0" y="0" fill="#FFB01F" font-family="'Amarillo'" font-size="96">swift</tspan><tspan x="262.459" y="0" fill="#333B48" font-family="'Amarillo'" font-size="96"> </tspan></text>
</g>
<g id="XMLID_14_">
	<polyline id="XMLID_41_" display="none" fill="#333B48" points="309.906,191.458 309.906,115.021 387.452,153.239 	"/>
	<polygon id="XMLID_27_" display="none" fill="#272D39" points="465,191.458 387.452,229.675 387.452,153.239 	"/>
	<polygon id="XMLID_43_" display="none" fill="#414A56" points="387.452,153.239 387.452,229.675 309.906,191.458 	"/>
</g>
<path fill="none" d="M365.749,352.57c-2.414,1.024-4.546,2.397-6.395,4.12c-1.851,1.72-3.419,3.711-4.706,5.964
	c-1.287,2.255-2.333,4.611-3.136,7.071c3.699,0.247,7.118,0.369,10.255,0.369c1.7,0,3.262-0.053,4.746-0.139l0.44-17.823
	C366.548,352.272,366.139,352.403,365.749,352.57z"/>
<path fill="none" d="M350,378.582v2.214c0,2.378,0.191,4.593,0.755,6.641c0.563,2.051,1.363,3.854,2.49,5.411
	c1.125,1.559,2.552,2.768,4.322,3.629c1.768,0.861,3.849,1.291,6.261,1.291c0.675,0,1.34-0.044,2.005-0.11l0.463-18.809
	c-1.534,0.064-3.032,0.101-4.681,0.101C358.156,378.949,353,378.827,350,378.582z"/>
<path fill="none" d="M379.562,367.083c1.81-0.942,3.096-2.093,3.862-3.445c0.762-1.353,1.145-2.849,1.145-4.488
	c0-2.786-0.964-4.838-2.896-6.149c-1.931-1.311-4.584-1.968-7.962-1.968c-2.425,0-4.672,0.381-6.758,1.101l-0.44,17.823
	c2.233-0.128,4.251-0.34,5.991-0.661C375.4,368.764,377.752,368.025,379.562,367.083z"/>
<linearGradient id="SVGID_3_" gradientUnits="userSpaceOnUse" x1="296.2026" y1="137.9121" x2="382.6226" y2="137.9121" gradientTransform="matrix(0.2749 0.9615 -0.9615 0.2749 464.5146 -232.0967)">
	<stop  offset="0" style="stop-color:#272D39"/>
	<stop  offset="0.5394" style="stop-color:#475264"/>
</linearGradient>
<path fill="url(#SVGID_3_)" d="M446.253,171.088l17.029-94.753l-85.419,24.518l-6.092,33.342
	C382.774,141.135,435.926,153.434,446.253,171.088z"/>
<path fill="#FFB01F" d="M324.306,139.41"/>
<path fill="#FFB01F" d="M359.638,199.866l-32.781-36.164c1.739,12.594,2.599,28.669,0.009,45.533L359.638,199.866z"/>
<linearGradient id="SVGID_4_" gradientUnits="userSpaceOnUse" x1="295.7065" y1="275.0991" x2="386.481" y2="275.0991" gradientTransform="matrix(0.2749 0.9615 -0.9615 0.2749 464.5146 -232.0967)">
	<stop  offset="0" style="stop-color:#FFB01F"/>
	<stop  offset="1" style="stop-color:#FFC253"/>
</linearGradient>
<path fill="url(#SVGID_4_)" d="M326.857,163.702l-35.186-38.819l-18.064,99.577l53.259-15.225
	C329.456,192.371,328.597,176.296,326.857,163.702z"/>
<linearGradient id="SVGID_5_" gradientUnits="userSpaceOnUse" x1="386.481" y1="253.7217" x2="477.2559" y2="253.7217" gradientTransform="matrix(0.2749 0.9615 -0.9615 0.2749 464.5146 -232.0967)">
	<stop  offset="0" style="stop-color:#FFC253"/>
	<stop  offset="0.9016" style="stop-color:#FFB01F"/>
</linearGradient>
<path fill="url(#SVGID_5_)" d="M359.638,199.866l-32.772,9.369c-2.615,17.032-8.76,34.862-21.082,50.725l35.789,39.485
	L359.638,199.866z"/>
<linearGradient id="SVGID_6_" gradientUnits="userSpaceOnUse" x1="386.479" y1="281.3535" x2="429.4551" y2="281.3535" gradientTransform="matrix(0.2749 0.9615 -0.9615 0.2749 464.5146 -232.0967)">
	<stop  offset="0" style="stop-color:#FFB01F"/>
	<stop  offset="1" style="stop-color:#FFC253"/>
</linearGradient>
<path fill="url(#SVGID_6_)" d="M326.866,209.235l-53.259,15.225l32.177,35.5C318.106,244.097,324.251,226.268,326.866,209.235z"/>
<g>

		<linearGradient id="SVGID_7_" gradientUnits="userSpaceOnUse" x1="295.4204" y1="94.5254" x2="386.1938" y2="94.5254" gradientTransform="matrix(0.2749 0.9615 -0.9615 0.2749 464.5146 -232.0967)">
		<stop  offset="0" style="stop-color:#FF951F"/>
		<stop  offset="1" style="stop-color:#FFC253"/>
	</linearGradient>
	<path fill="url(#SVGID_7_)" d="M504.381,120.737l-41.009-45.242l-18.064,99.577l36.484-10.431
		C484.685,141.852,494.643,128.496,504.381,120.737z"/>

		<linearGradient id="SVGID_8_" gradientUnits="userSpaceOnUse" x1="386.1929" y1="111.4189" x2="441.6104" y2="111.4189" gradientTransform="matrix(0.2749 0.9615 -0.9615 0.2749 464.5146 -232.0967)">
		<stop  offset="0" style="stop-color:#FFB01F"/>
		<stop  offset="1" style="stop-color:#FFC253"/>
	</linearGradient>
	<path fill="url(#SVGID_8_)" d="M445.308,175.072l41.492,45.776c-5.818-23.246-6.854-41.651-5.008-56.207L445.308,175.072z"/>

		<linearGradient id="SVGID_9_" gradientUnits="userSpaceOnUse" x1="350.1909" y1="66.6816" x2="386.1958" y2="66.6816" gradientTransform="matrix(0.2749 0.9615 -0.9615 0.2749 464.5146 -232.0967)">
		<stop  offset="0" style="stop-color:#FF8A1F"/>
		<stop  offset="1" style="stop-color:#FFC253"/>
	</linearGradient>
	<path fill="url(#SVGID_9_)" d="M481.792,164.642l49.546-14.164l-26.957-29.741C494.643,128.496,484.685,141.852,481.792,164.642z"
		/>

		<linearGradient id="SVGID_10_" gradientUnits="userSpaceOnUse" x1="386.1938" y1="71.9995" x2="476.9697" y2="71.9995" gradientTransform="matrix(0.2749 0.9615 -0.9615 0.2749 464.5146 -232.0967)">
		<stop  offset="0" style="stop-color:#FFD953"/>
		<stop  offset="0.5157" style="stop-color:#FFB01F"/>
	</linearGradient>
	<path fill="url(#SVGID_10_)" d="M531.338,150.478l-49.546,14.164c-1.847,14.556-0.811,32.961,5.008,56.207l26.475,29.208
		L531.338,150.478z"/>
</g>
<path fill="#414A56" d="M434.215,239.525l11.734-68.553c-5.145-17.992-31.09-35.705-74.178-36.777l-18.829,102.19
	C390.184,223.226,417.573,230.436,434.215,239.525z"/>
<linearGradient id="SVGID_11_" gradientUnits="userSpaceOnUse" x1="419.043" y1="211.5439" x2="477.2588" y2="211.5439" gradientTransform="matrix(0.2749 0.9615 -0.9615 0.2749 464.5146 -232.0967)">
	<stop  offset="0" style="stop-color:#333B48"/>
	<stop  offset="1" style="stop-color:#272D39"/>
</linearGradient>
<path fill="url(#SVGID_11_)" d="M427.604,274.852l6.45-35.889c-16.625-9.026-43.615-16.259-80.86-3.11l-11.621,63.593
	L427.604,274.852z"/>
<text transform="matrix(1.03 0 0 1.05 453.501 437)" display="none" fill="#333B48" font-family="'Amarillo'" font-size="96">dge</text>
<path display="none" fill="none" d="M424.957,412.631c-0.066,0.538,0.043,1.093,0.043,1.663c0,0.571,0,1.126,0,1.663
	c0,0.162-0.125,0.318-0.123,0.479c0.202-2.771,0.348-5.585,0.578-8.424c-0.041,0.263-0.053,0.521-0.089,0.787
	C425.201,410.01,425.088,411.287,424.957,412.631z"/>
<path display="none" fill="none" d="M443.553,392.874c2.735-1.948,5.093-4.199,7.07-6.754c1.978-2.553,3.098-5.343,3.361-8.366
	c0.263-2.485-0.231-5.04-1.482-7.661c-0.989-1.948-2.176-2.923-3.56-2.923c-1.254,0-2.621,0.604-4.104,1.814
	c-1.483,1.209-2.967,2.789-4.45,4.737c-1.483,1.95-2.951,4.133-4.4,6.552c-1.45,2.419-2.753,4.839-3.905,7.258
	c-1.154,2.419-2.176,4.722-3.065,6.904c-0.89,2.185-1.5,3.982-1.829,5.394c2.24-0.268,4.845-1.009,7.812-2.218
	C437.966,396.401,440.816,394.823,443.553,392.874z"/>
<linearGradient id="SVGID_12_" gradientUnits="userSpaceOnUse" x1="399" y1="398.168" x2="423.2568" y2="398.168">
	<stop  offset="0.4094" style="stop-color:#4A5363"/>
	<stop  offset="1" style="stop-color:#272D39"/>
</linearGradient>
<path display="none" fill="url(#SVGID_12_)" d="M418.02,413.631c0.131-1.344,0.178-2.621,0.342-3.831
	c0.037-0.266,0.033-0.524,0.074-0.787c1.438-17.715,3.336-36.274,4.821-49.761c-2.118,1.251-4.152,2.806-6.071,4.684
	c-2.473,2.42-4.737,5.227-6.779,8.417c-2.044,3.192-3.845,6.62-5.393,10.282c-1.55,3.663-2.932,7.426-3.922,11.289
	c-0.988,3.865-2.092,15.709-2.092,16.582c0,3.495,0.345,6.839,1.003,10.029c0.658,3.192,1.737,6.015,3.221,8.467
	c1.483,2.454,3.43,4.42,5.837,5.897c2.112,1.298,4.684,2.025,7.586,2.184C416.885,431.089,417.966,414.069,418.02,413.631z"/>
<linearGradient id="SVGID_13_" gradientUnits="userSpaceOnUse" x1="418.1348" y1="382.6563" x2="451.6348" y2="382.6563">
	<stop  offset="0" style="stop-color:#272D39"/>
	<stop  offset="0.8268" style="stop-color:#4A5363"/>
</linearGradient>
<path display="none" fill="url(#SVGID_13_)" d="M418.655,406.335c3.374-0.739,6.897-1.916,10.569-3.528
	c3.672-1.613,7.098-3.629,10.273-6.048c3.176-2.42,5.888-5.207,8.138-8.366c2.249-3.158,3.573-6.618,3.971-10.383
	c0.131-2.688-0.184-5.325-0.943-7.913c-0.762-2.586-1.92-4.904-3.474-6.955c-1.556-2.049-3.474-3.712-5.757-4.989
	c-2.283-1.275-4.881-1.916-7.791-1.916c-3.044,0-5.973,0.69-8.783,2.067c-0.629,0.308-1.246,0.651-1.858,1.011
	c-1.491,13.486-3.422,32.046-4.865,49.761C418.281,408.144,418.448,407.227,418.655,406.335z M421.781,395.498
	c0.893-2.183,1.918-4.485,3.077-6.904c1.156-2.419,2.464-4.839,3.92-7.258c1.454-2.419,2.928-4.602,4.417-6.552
	c1.488-1.948,2.978-3.528,4.467-4.737c1.487-1.21,2.86-1.814,4.118-1.814c1.39,0,2.58,0.975,3.573,2.923
	c1.256,2.621,1.752,5.176,1.488,7.661c-0.265,3.023-1.39,5.813-3.374,8.366c-1.985,2.555-4.352,4.806-7.097,6.754
	c-2.747,1.949-5.608,3.527-8.585,4.737c-2.978,1.209-5.593,1.95-7.841,2.218C420.275,399.48,420.889,397.683,421.781,395.498z"/>
<linearGradient id="SVGID_14_" gradientUnits="userSpaceOnUse" x1="71.1875" y1="423.5576" x2="125.8418" y2="423.5576">
	<stop  offset="0" style="stop-color:#FFB01F"/>
	<stop  offset="1" style="stop-color:#FFC253"/>
</linearGradient>
<path fill="url(#SVGID_14_)" d="M118.907,383.803c-1.603-0.251-3.342-0.457-5.218-0.618c-1.877-0.16-3.731-0.24-5.562-0.24
	c-4.257,0-8.205,0.549-11.844,1.647s-6.775,2.667-9.407,4.703c-2.633,2.038-4.692,4.463-6.179,7.278
	c-1.488,2.815-2.231,5.939-2.231,9.372c0,2.931,0.446,5.586,1.339,7.965c0.893,2.381,2.025,4.532,3.398,6.454
	c1.374,1.923,2.86,3.605,4.463,5.047c1.602,1.442,3.112,2.667,4.532,3.674c1.739,1.235,3.365,2.461,4.875,3.673
	c1.511,1.214,2.815,2.449,3.914,3.708s1.968,2.574,2.609,3.948c0.641,1.373,0.961,2.86,0.961,4.463c0,1.877-0.377,3.422-1.133,4.635
	c-0.755,1.213-1.716,2.162-2.884,2.849c-1.167,0.687-2.472,1.157-3.914,1.408c-1.442,0.252-2.827,0.377-4.154,0.377
	c-2.06,0-4.029-0.229-5.905-0.687c-1.877-0.457-3.616-1.029-5.218-1.716c-1.603-0.688-3.021-1.419-4.257-2.197
	s-2.221-1.487-2.952-2.129l-2.953,12.29c0.641,0.505,1.705,1.02,3.193,1.545c1.487,0.527,3.203,1.008,5.149,1.442
	c1.945,0.435,4.039,0.789,6.283,1.064c2.242,0.274,4.439,0.412,6.591,0.412c3.982,0,7.815-0.493,11.501-1.477
	c3.684-0.984,6.923-2.472,9.715-4.463c2.792-1.991,5.023-4.463,6.694-7.416c1.67-2.952,2.506-6.419,2.506-10.401
	c0-2.884-0.412-5.447-1.236-7.69c-0.824-2.242-1.912-4.279-3.262-6.111c-1.351-1.83-2.896-3.512-4.634-5.046
	c-1.74-1.533-3.548-3.01-5.424-4.429c-1.832-1.373-3.491-2.688-4.978-3.948c-1.488-1.259-2.747-2.528-3.776-3.811
	c-1.03-1.281-1.797-2.609-2.3-3.982c-0.504-1.373-0.71-2.86-0.618-4.463c0.091-1.556,0.48-2.884,1.167-3.982s1.58-1.991,2.678-2.678
	c1.099-0.687,2.323-1.178,3.673-1.477c1.35-0.297,2.757-0.446,4.223-0.446c1.968,0,3.776,0.24,5.424,0.721
	c1.648,0.481,3.112,1.054,4.395,1.717c1.281,0.664,2.334,1.339,3.158,2.025c0.824,0.687,1.396,1.236,1.717,1.648l2.815-12.978
	c-0.595-0.274-1.5-0.56-2.712-0.858C121.917,384.329,120.509,384.055,118.907,383.803z"/>
<linearGradient id="SVGID_15_" gradientUnits="userSpaceOnUse" x1="130.9912" y1="423.5576" x2="165.1709" y2="423.5576">
	<stop  offset="0" style="stop-color:#FFD455"/>
	<stop  offset="1" style="stop-color:#FFB01F"/>
</linearGradient>
<path fill="url(#SVGID_15_)" d="M164.43,449.34l-1.305-13.664l-4.669-43.325c-0.412-3.066-1.442-5.4-3.09-7.003
	s-4.395-2.403-8.239-2.403c-2.06,0-4.006,0.32-5.836,0.961c-1.831,0.642-3.457,1.396-4.875,2.266
	c-1.419,0.87-2.609,1.729-3.57,2.575c-0.961,0.848-1.579,1.477-1.854,1.888l1.991,4.807c0.687-0.412,1.293-0.731,1.82-0.961
	c0.525-0.229,1.178-0.344,1.957-0.344c0.732,0.046,1.327,0.344,1.786,0.893c0.457,0.55,0.846,1.534,1.167,2.952l7.484,40.442
	l5.013,25.748l7.637-0.478c2.117-5.778,3.881-11.247,5.326-16.427L164.43,449.34z"/>
<linearGradient id="SVGID_16_" gradientUnits="userSpaceOnUse" x1="159.8447" y1="423.4883" x2="247.5781" y2="423.4883">
	<stop  offset="0" style="stop-color:#FFD455"/>
	<stop  offset="1" style="stop-color:#FFA400"/>
</linearGradient>
<path fill="url(#SVGID_16_)" d="M245.072,387.098c-0.848-1.304-1.946-2.322-3.296-3.055c-1.351-0.731-2.987-1.099-4.909-1.099
	c-2.884,0-5.104,0.778-6.66,2.334c-1.557,1.557-2.334,3.64-2.334,6.248c0,1.008,0.114,2.05,0.343,3.124
	c0.229,1.076,0.48,2.163,0.755,3.262c0.274,1.099,0.525,2.231,0.755,3.398c0.229,1.168,0.319,2.324,0.274,3.468
	c-0.092,3.251-0.561,6.547-1.408,9.888c-0.847,3.342-1.888,6.58-3.124,9.715c-1.236,3.137-2.598,6.111-4.085,8.927
	c-1.488,2.814-2.941,5.321-4.36,7.518l-5.149,8.103l-1.03-11.693L205.489,384h-17.44l-17.92,49.664l-4.958,13.729
	c-1.445,5.18-3.209,10.585-5.326,16.362l7.743-0.516l11.329-25.969l8.789-20.675l3.09-10.235l0.755,10.229l2.266,21.834
	l3.502,25.609l14.144-0.687l10.986-15.518c1.511-1.968,3.181-4.268,5.012-6.9c1.831-2.632,3.673-5.436,5.527-8.411
	c1.854-2.975,3.662-6.042,5.424-9.2c1.762-3.159,3.33-6.271,4.703-9.338c1.374-3.066,2.46-6.009,3.262-8.823
	c0.8-2.815,1.201-5.344,1.201-7.587c0-2.105-0.206-4.052-0.618-5.837S245.918,388.402,245.072,387.098z"/>
<linearGradient id="SVGID_17_" gradientUnits="userSpaceOnUse" x1="272.8457" y1="382.9443" x2="272.8457" y2="464.1709">
	<stop  offset="0" style="stop-color:#FFD455"/>
	<stop  offset="1" style="stop-color:#FF8500"/>
</linearGradient>
<path fill="url(#SVGID_17_)" d="M286.2,456.687c1.03-1.099,1.728-1.899,2.094-2.403l-1.991-4.463
	c-1.74,1.466-3.113,2.472-4.12,3.021c-1.007,0.549-1.9,0.823-2.678,0.823c-1.832,0-2.496-1.739-1.991-5.218l9.132-63.855
	l-3.639-1.647l-24.512,3.57l-1.099,5.836l8.857,3.982c-0.917,6.592-1.786,12.817-2.609,18.676c-0.824,5.86-1.591,11.25-2.3,16.17
	c-0.71,4.921-1.339,9.338-1.888,13.252c-0.549,3.913-0.985,7.243-1.304,9.99c-0.367,3.158,0.446,5.573,2.438,7.243
	c1.991,1.671,4.978,2.507,8.96,2.507c2.609,0,4.978-0.424,7.106-1.271s3.993-1.819,5.596-2.918
	C283.854,458.884,285.17,457.785,286.2,456.687z"/>
<linearGradient id="SVGID_18_" gradientUnits="userSpaceOnUse" x1="269.2754" y1="358.4668" x2="291.4531" y2="358.4668">
	<stop  offset="0" style="stop-color:#FFD455"/>
	<stop  offset="1" style="stop-color:#FF8500"/>
</linearGradient>
<path fill="url(#SVGID_18_)" d="M272.125,366.396c0.893,0.916,1.923,1.648,3.09,2.197c1.167,0.55,2.414,0.824,3.742,0.824
	c1.968,0,3.718-0.332,5.252-0.996c1.533-0.662,2.838-1.556,3.914-2.678c1.075-1.121,1.888-2.438,2.437-3.947
	c0.549-1.511,0.847-3.09,0.893-4.738c0-1.235-0.23-2.426-0.687-3.57c-0.458-1.144-1.133-2.163-2.025-3.056s-1.969-1.602-3.227-2.128
	c-1.259-0.525-2.689-0.79-4.292-0.79c-1.694,0-3.261,0.321-4.703,0.962c-1.442,0.642-2.689,1.499-3.742,2.574
	c-1.053,1.076-1.888,2.347-2.506,3.811c-0.618,1.466-0.951,3.021-0.996,4.669c0,1.282,0.251,2.519,0.755,3.708
	C270.534,364.43,271.232,365.481,272.125,366.396z"/>
<linearGradient id="SVGID_19_" gradientUnits="userSpaceOnUse" x1="278.2012" y1="423.0762" x2="356.2002" y2="423.0762">
	<stop  offset="0" style="stop-color:#FFD455"/>
	<stop  offset="0.5236" style="stop-color:#FFA600"/>
</linearGradient>
<path fill="url(#SVGID_19_)" d="M333.268,368.319c0.457-2.014,1.075-3.742,1.854-5.184c0.778-1.442,1.761-2.563,2.952-3.365
	c1.19-0.8,2.678-1.201,4.463-1.201c1.189,0,2.266,0.104,3.227,0.309c0.961,0.206,1.842,0.481,2.643,0.824
	c0.8,0.344,1.499,0.71,2.094,1.099c0.594,0.39,1.099,0.745,1.511,1.064l4.188-11.947c-1.831-0.777-3.753-1.271-5.767-1.477
	c-2.015-0.205-3.96-0.309-5.836-0.309c-3.982,0-7.69,0.79-11.123,2.369s-6.489,3.754-9.167,6.522
	c-2.678,2.771-4.933,6.008-6.763,9.716c-1.831,3.708-3.089,7.689-3.776,11.947l-0.824,5.149l-9.75,4.62L301.958,395h8.995
	l-9.475,77.91c-0.642,4.714-1.648,8.205-3.021,10.77c-1.374,2.563-3.159,3.771-5.356,3.771c-0.824,0-1.819-0.174-2.987-0.448
	c-1.167-0.274-2.311-0.603-3.433-0.945c-1.121-0.344-2.104-0.696-2.952-1.039c-0.847-0.344-1.384-0.565-1.614-0.657l-3.914,12.356
	c0.549,0.138,1.271,0.284,2.163,0.445s1.888,0.296,2.986,0.411c1.099,0.113,2.255,0.217,3.468,0.309
	c1.213,0.092,2.438,0.138,3.673,0.138c4.485,0,8.502-1.099,12.05-3.296c3.547-2.197,6.626-5.115,9.235-8.754
	c2.609-3.64,4.738-7.84,6.386-12.6c1.648-4.762,2.792-9.433,3.433-14.605L329.354,395h14.831l1.648-11h-14.968l1.236-8.698
	C332.42,372.83,332.81,370.334,333.268,368.319z"/>
<linearGradient id="SVGID_20_" gradientUnits="userSpaceOnUse" x1="349.3345" y1="415.0859" x2="393.2773" y2="415.0859">
	<stop  offset="0.1457" style="stop-color:#FFA804"/>
	<stop  offset="0.1693" style="stop-color:#FFA600"/>
	<stop  offset="0.7323" style="stop-color:#FFD455"/>
</linearGradient>
<path fill="url(#SVGID_20_)" d="M370.345,436.088L376.044,394h15.723l1.511-10h-15.93l2.267-18h-10.094
	c-0.687,1-1.431,3.15-2.231,4.936s-1.647,3.396-2.54,5.044c-0.893,1.647-1.797,3.116-2.712,4.512
	c-0.917,1.396-1.832,2.503-2.747,3.372l-8.376,3.283L349.334,394h8.239l-5.836,44.766c-0.367,2.701-0.642,4.818-0.824,6.421
	c-0.184,1.603-0.321,2.855-0.412,3.793c-0.092,0.938-0.149,1.594-0.171,1.981c-0.024,0.39-0.035,0.694-0.035,0.923
	c0,2.335,0.354,4.29,1.064,5.869c0.709,1.579,1.67,2.848,2.884,3.81c1.212,0.961,2.597,1.636,4.154,2.025
	c1.556,0.388,3.181,0.584,4.875,0.584c2.929,0,5.722-0.356,8.377-1.065c2.654-0.709,5.069-1.602,7.243-2.678
	c2.174-1.075,4.074-2.242,5.699-3.502c1.624-1.259,2.895-2.438,3.811-3.536l-1.511-5.424c-0.823,0.641-1.763,1.247-2.814,1.819
	c-1.054,0.572-2.129,1.064-3.228,1.476c-1.099,0.412-2.197,0.745-3.296,0.996c-1.099,0.252-2.083,0.378-2.952,0.378
	c-2.06,0-3.467-0.435-4.223-1.305c-0.755-0.869-1.133-2.403-1.133-4.601c0-1.236,0.091-2.688,0.274-4.428
	C369.703,440.563,369.978,438.516,370.345,436.088z"/>
<path fill="none" d="M412.709,423.854c1.556-0.091,3.271-0.366,5.149-0.824c1.876-0.457,3.753-1.121,5.63-1.991
	c1.877-0.869,3.696-1.91,5.459-3.124c1.762-1.212,3.307-2.62,4.635-4.223c1.327-1.602,2.391-3.364,3.192-5.287
	c0.801-1.922,1.178-4.027,1.133-6.316c-0.092-3.387-0.732-5.881-1.923-7.484c-1.19-1.602-2.86-2.403-5.012-2.403
	c-2.015,0-3.845,0.505-5.493,1.511c-1.647,1.008-3.113,2.335-4.395,3.982c-1.281,1.648-2.415,3.56-3.398,5.733
	c-0.984,2.175-1.809,4.44-2.472,6.798c-0.664,2.357-1.201,4.715-1.613,7.071c-0.157,0.898-0.292,1.764-0.417,2.613
	c-0.115,0.866-0.229,1.734-0.339,2.604C412.796,422.969,412.748,423.417,412.709,423.854z"/>
<path fill="none" d="M413.185,419.91c-0.129,0.895-0.245,1.766-0.339,2.604C412.956,421.645,413.069,420.776,413.185,419.91z"/>
<linearGradient id="SVGID_21_" gradientUnits="userSpaceOnUse" x1="410.6582" y1="424.0947" x2="456.4482" y2="424.0947">
	<stop  offset="0" style="stop-color:#272D39"/>
	<stop  offset="0.5394" style="stop-color:#475264"/>
</linearGradient>
<path fill="url(#SVGID_21_)" d="M421.223,430.893c3.203-0.572,6.431-1.396,9.682-2.472c3.249-1.075,6.43-2.448,9.544-4.12
	c3.112-1.67,5.858-3.661,8.239-5.974c2.379-2.311,4.279-4.943,5.698-7.896c1.419-2.953,2.105-6.26,2.061-9.922
	c-0.047-2.426-0.493-4.691-1.339-6.798c-0.848-2.104-2.141-3.924-3.88-5.458c-1.74-1.533-3.938-2.747-6.592-3.64
	c-2.655-0.893-5.791-1.339-9.406-1.339c-5.838,0-11.267,1.241-16.293,3.698c-2.053,9.719-4.17,21.128-5.752,32.937
	c0.125-0.85,0.26-1.715,0.417-2.613c0.412-2.356,0.949-4.714,1.613-7.071c0.663-2.357,1.487-4.623,2.472-6.798
	c0.983-2.174,2.117-4.085,3.398-5.733c1.281-1.647,2.747-2.975,4.395-3.982c1.648-1.006,3.479-1.511,5.493-1.511
	c2.151,0,3.821,0.802,5.012,2.403c1.19,1.604,1.831,4.098,1.923,7.484c0.045,2.289-0.332,4.395-1.133,6.316
	c-0.802,1.923-1.865,3.686-3.192,5.287c-1.328,1.603-2.873,3.011-4.635,4.223c-1.763,1.214-3.582,2.255-5.459,3.124
	c-1.877,0.87-3.754,1.534-5.63,1.991c-1.878,0.458-3.594,0.733-5.149,0.824c0.039-0.438,0.087-0.886,0.137-1.34
	c-1.759,13.918-2.714,28.249-1.885,40.907c3.039,0.994,6.506,1.492,10.399,1.492c3.936,0,7.563-0.527,10.883-1.579
	c3.318-1.053,6.271-2.369,8.857-3.948c2.585-1.579,4.782-3.25,6.591-5.013c1.808-1.761,3.193-3.375,4.154-4.84l-3.845-6.454
	c-1.374,1.465-2.85,2.849-4.429,4.153s-3.273,2.449-5.081,3.434c-1.809,0.984-3.731,1.763-5.768,2.334
	c-2.037,0.573-4.2,0.858-6.488,0.858c-2.473,0-4.601-0.595-6.386-1.785c-1.785-1.189-3.228-2.791-4.326-4.807
	c-1.099-2.014-1.888-4.348-2.368-7.003c-0.48-2.654-0.676-5.47-0.584-8.445C415.135,431.774,418.019,431.465,421.223,430.893z"/>
<linearGradient id="SVGID_22_" gradientUnits="userSpaceOnUse" x1="392.4502" y1="425.1973" x2="419.2109" y2="425.1973">
	<stop  offset="0" style="stop-color:#333B48"/>
	<stop  offset="1" style="stop-color:#272D39;stop-opacity:0.9"/>
</linearGradient>
<path fill="url(#SVGID_22_)" d="M413.058,422.515c0.094-0.839,0.211-1.71,0.342-2.604c1.599-11.809,3.738-23.218,5.812-32.937
	c-0.178,0.086-0.358,0.161-0.534,0.25c-5.227,2.633-9.782,6.237-13.667,10.814s-6.937,9.921-9.156,16.032
	c-2.221,6.11-3.354,12.646-3.4,19.603c-0.046,3.938,0.462,7.771,1.527,11.501c1.063,3.731,2.763,7.062,5.098,9.99
	c2.336,2.93,5.365,5.287,9.088,7.072c0.945,0.452,1.942,0.848,2.987,1.186C410.315,450.764,411.279,436.433,413.058,422.515z"/>
<path fill="none" d="M509.315,392.407c-3.021,0-5.711,0.63-8.068,1.889c-2.357,1.26-4.44,2.952-6.248,5.081
	c-1.809,2.128-3.354,4.612-4.635,7.449c-1.282,2.839-2.334,5.814-3.158,8.926c-0.824,3.114-1.419,6.272-1.785,9.476
	c-0.367,3.205-0.549,6.271-0.549,9.201c0,6.134,0.915,10.86,2.746,14.178c1.83,3.319,4.349,4.979,7.553,4.979
	c1.556,0,3.066-0.274,4.531-0.824c1.465-0.549,2.85-1.271,4.154-2.163s2.506-1.898,3.604-3.021c1.099-1.121,2.061-2.254,2.884-3.399
	l7.484-50.054c-1.236-0.641-2.564-1.087-3.982-1.339C512.428,392.534,510.917,392.407,509.315,392.407z"/>
<path fill="none" d="M593.563,392.407c-2.977,0-5.654,0.63-8.033,1.889c-2.381,1.26-4.486,2.952-6.317,5.081
	c-1.831,2.128-3.388,4.612-4.669,7.449c-1.281,2.839-2.334,5.814-3.158,8.926c-0.824,3.114-1.431,6.272-1.819,9.476
	c-0.39,3.205-0.584,6.271-0.584,9.201c0,6.134,0.938,10.86,2.815,14.178c1.876,3.319,4.417,4.979,7.621,4.979
	c1.419,0,2.815-0.229,4.188-0.687c1.373-0.457,2.678-1.064,3.914-1.819c1.235-0.756,2.403-1.637,3.502-2.644s2.082-2.036,2.952-3.09
	l7.484-51.496c-1.191-0.503-2.438-0.869-3.742-1.099C596.412,392.522,595.027,392.407,593.563,392.407z"/>
<path fill="none" d="M513.847,392.785c-1.419-0.251-2.93-0.378-4.531-0.378c-3.021,0-5.711,0.63-8.068,1.889
	c-2.357,1.26-4.44,2.952-6.248,5.081c-1.809,2.128-3.354,4.612-4.635,7.449c-1.282,2.839-2.334,5.814-3.158,8.926
	c-0.824,3.114-1.419,6.272-1.785,9.476c-0.367,3.205-0.549,6.271-0.549,9.201c0,6.134,0.915,10.86,2.746,14.178
	c1.83,3.319,4.349,4.979,7.553,4.979c1.556,0,3.066-0.274,4.531-0.824c1.465-0.549,2.85-1.271,4.154-2.163s2.506-1.898,3.604-3.021
	c1.099-1.121,2.061-2.254,2.884-3.399l7.484-50.054C516.593,393.483,515.265,393.037,513.847,392.785z"/>
<linearGradient id="SVGID_23_" gradientUnits="userSpaceOnUse" x1="519.6768" y1="444.9014" x2="457.6713" y2="382.8959">
	<stop  offset="0" style="stop-color:#272D39"/>
	<stop  offset="0.0079" style="stop-color:#475264"/>
</linearGradient>
<path fill="url(#SVGID_23_)" d="M515.22,383.585c-1.373-0.16-2.724-0.24-4.051-0.24c-5.036,0-9.659,0.721-13.869,2.162
	c-4.212,1.442-7.999,3.423-11.364,5.939c-3.364,2.518-6.328,5.459-8.892,8.823s-4.692,6.969-6.385,10.813
	c-1.694,3.846-2.965,7.84-3.812,11.981c-0.847,4.144-1.27,8.229-1.27,12.257c0,4.074,0.435,7.896,1.305,11.466
	c0.868,3.57,2.242,6.672,4.119,9.304c1.877,2.633,4.279,4.703,7.21,6.214c2.929,1.511,6.454,2.266,10.573,2.266
	c2.609,0,5.035-0.332,7.278-0.995c2.242-0.663,4.291-1.521,6.146-2.575c1.854-1.053,3.501-2.254,4.943-3.604
	c0.683-0.639,1.317-1.28,1.912-1.925l10.207-71.233C517.942,383.962,516.593,383.745,515.22,383.585z M507.461,447.577
	c-1.099,1.122-2.3,2.128-3.604,3.021s-2.689,1.614-4.154,2.163c-1.465,0.55-2.976,0.824-4.531,0.824
	c-3.204,0-5.723-1.659-7.553-4.979c-1.831-3.317-2.746-8.044-2.746-14.178c0-2.93,0.182-5.996,0.549-9.201
	c0.366-3.203,0.961-6.361,1.785-9.476c0.824-3.111,1.876-6.087,3.158-8.926c1.281-2.837,2.826-5.321,4.635-7.449
	c1.808-2.129,3.891-3.821,6.248-5.081c2.357-1.259,5.047-1.889,8.068-1.889c1.602,0,3.112,0.127,4.531,0.378
	c1.418,0.252,2.746,0.698,3.982,1.339l-7.484,50.054C509.521,445.323,508.56,446.456,507.461,447.577z"/>
<linearGradient id="SVGID_24_" gradientUnits="userSpaceOnUse" x1="498.0635" y1="453.3506" x2="553.2085" y2="357.8366">
	<stop  offset="0" style="stop-color:#272D39"/>
	<stop  offset="0.5394" style="stop-color:#475264"/>
</linearGradient>
<path fill="url(#SVGID_24_)" d="M532.935,453.447c-0.916,0.412-1.694,0.618-2.335,0.618c-0.916,0-1.533-0.48-1.854-1.442
	c-0.32-0.961-0.367-2.266-0.137-3.913l14.075-96.95l-3.776-1.854l-24.581,2.884l-1.373,5.699l9.75,2.952l-3.433,22.796
	l-10.207,71.233c0.662-0.717,1.275-1.438,1.83-2.16c0,3.845,0.834,6.684,2.506,8.514c1.671,1.83,4.313,2.746,7.931,2.746
	c2.426,0,4.635-0.401,6.626-1.201c1.991-0.801,3.729-1.728,5.218-2.781c1.487-1.052,2.7-2.094,3.639-3.124
	c0.938-1.029,1.591-1.773,1.957-2.231l-1.991-4.325C535.132,452.189,533.85,453.035,532.935,453.447z"/>
<path fill="none" d="M593.563,392.407c-2.977,0-5.654,0.63-8.033,1.889c-2.381,1.26-4.486,2.952-6.317,5.081
	c-1.831,2.128-3.388,4.612-4.669,7.449c-1.281,2.839-2.334,5.814-3.158,8.926c-0.824,3.114-1.431,6.272-1.819,9.476
	c-0.39,3.205-0.584,6.271-0.584,9.201c0,6.134,0.938,10.86,2.815,14.178c1.876,3.319,4.417,4.979,7.621,4.979
	c1.419,0,2.815-0.229,4.188-0.687c1.373-0.457,2.678-1.064,3.914-1.819c1.235-0.756,2.403-1.637,3.502-2.644s2.082-2.036,2.952-3.09
	l7.484-51.496c-1.191-0.503-2.438-0.869-3.742-1.099C596.412,392.522,595.027,392.407,593.563,392.407z"/>
<linearGradient id="SVGID_25_" gradientUnits="userSpaceOnUse" x1="624.1836" y1="386.1582" x2="533.4141" y2="476.9277">
	<stop  offset="0" style="stop-color:#333B48;stop-opacity:0.8"/>
	<stop  offset="1" style="stop-color:#272D39"/>
</linearGradient>
<path fill="url(#SVGID_25_)" d="M611.483,386.365c-2.061-0.731-4.532-1.418-7.416-2.06c-2.884-0.641-5.768-0.961-8.651-0.961
	c-4.989,0-9.578,0.721-13.767,2.162c-4.188,1.442-7.988,3.423-11.397,5.939c-3.41,2.518-6.409,5.459-8.994,8.823
	c-2.587,3.364-4.75,6.969-6.489,10.813c-1.74,3.846-3.055,7.84-3.948,11.981c-0.893,4.144-1.338,8.229-1.338,12.257
	c0,4.074,0.457,7.896,1.373,11.466c0.915,3.57,2.334,6.672,4.257,9.304c1.923,2.633,4.36,4.703,7.313,6.214
	s6.488,2.266,10.608,2.266c2.06,0,4.017-0.206,5.87-0.617c1.854-0.412,3.593-0.984,5.218-1.717c1.625-0.731,3.125-1.579,4.498-2.541
	c1.373-0.961,2.631-1.967,3.776-3.021l-0.104,0.747c6.761-4.002,14.271-7.481,19.862-9.876l9.216-64.201L611.483,386.365z
	 M593.975,445.346c-0.87,1.054-1.854,2.083-2.952,3.09s-2.267,1.888-3.502,2.644c-1.236,0.755-2.541,1.362-3.914,1.819
	c-1.373,0.458-2.77,0.687-4.188,0.687c-3.204,0-5.745-1.659-7.621-4.979c-1.878-3.317-2.815-8.044-2.815-14.178
	c0-2.93,0.194-5.996,0.584-9.201c0.389-3.203,0.995-6.361,1.819-9.476c0.824-3.111,1.877-6.087,3.158-8.926
	c1.281-2.837,2.838-5.321,4.669-7.449c1.831-2.129,3.937-3.821,6.317-5.081c2.379-1.259,5.057-1.889,8.033-1.889
	c1.465,0,2.85,0.115,4.154,0.344c1.305,0.229,2.551,0.596,3.742,1.099L593.975,445.346z"/>
<linearGradient id="SVGID_26_" gradientUnits="userSpaceOnUse" x1="604.5283" y1="510.3574" x2="578.5437" y2="465.3507">
	<stop  offset="0" style="stop-color:#333B48;stop-opacity:0.8"/>
	<stop  offset="1" style="stop-color:#272D39"/>
</linearGradient>
<path fill="url(#SVGID_26_)" d="M590.129,473.153c-0.411,2.975-0.961,5.39-1.647,7.244c-0.687,1.854-1.637,3.317-2.85,4.394
	c-1.213,1.075-2.712,1.808-4.497,2.197c-1.785,0.389-3.982,0.584-6.592,0.584c-1.922,0-3.868-0.229-5.836-0.687
	c-1.969-0.458-3.822-0.996-5.562-1.614c-1.74-0.617-3.273-1.259-4.601-1.922c-1.328-0.664-2.289-1.18-2.884-1.545l-3.501,13.869
	c0.687,0.32,1.647,0.641,2.884,0.962c1.235,0.319,2.631,0.617,4.188,0.893c1.556,0.274,3.193,0.503,4.909,0.687
	c1.717,0.182,3.376,0.274,4.979,0.274c2.7,0,5.493-0.206,8.377-0.618s5.721-1.088,8.514-2.025c2.791-0.938,5.469-2.175,8.033-3.708
	c2.563-1.534,4.875-3.41,6.935-5.63c2.061-2.221,3.812-4.818,5.253-7.793c1.441-2.977,2.414-6.386,2.918-10.23l3.006-20.938
	c-5.591,2.395-13.102,5.874-19.862,9.876L590.129,473.153z"/>
<path fill="none" d="M651.374,431.938c0.343-0.059,0.684-0.113,1.025-0.161c-0.342,0.014-0.692,0.037-1.024,0.043
	C651.374,431.858,651.375,431.897,651.374,431.938z"/>
<path fill="none" d="M667.751,417.915c1.762-1.212,3.307-2.62,4.635-4.223c1.327-1.602,2.392-3.364,3.192-5.287
	c0.801-1.922,1.178-4.027,1.133-6.316c-0.092-3.387-0.732-5.881-1.922-7.484c-1.191-1.602-2.861-2.403-5.013-2.403
	c-2.015,0-3.845,0.505-5.493,1.511c-1.647,1.008-3.113,2.335-4.394,3.982c-1.282,1.648-2.415,3.56-3.399,5.733
	c-0.984,2.175-1.809,4.44-2.472,6.798c-0.664,2.357-1.201,4.715-1.613,7.071c-0.412,2.358-0.71,4.544-0.893,6.558
	c1.556-0.091,3.272-0.366,5.149-0.824c1.877-0.457,3.753-1.121,5.63-1.991C664.169,420.17,665.988,419.129,667.751,417.915z"/>
<linearGradient id="SVGID_27_" gradientUnits="userSpaceOnUse" x1="631.252" y1="431.6182" x2="695.2567" y2="431.6182">
	<stop  offset="0" style="stop-color:#333B48;stop-opacity:0.8"/>
	<stop  offset="1" style="stop-color:#272D39"/>
</linearGradient>
<path fill="url(#SVGID_27_)" d="M656.204,431.46c-1.267,0.031-2.537,0.139-3.805,0.316
	C653.603,431.725,654.869,431.619,656.204,431.46z"/>
<linearGradient id="SVGID_28_" gradientUnits="userSpaceOnUse" x1="682.2256" y1="434.2998" x2="636.3307" y2="460.7972">
	<stop  offset="0" style="stop-color:#333B48;stop-opacity:0.8"/>
	<stop  offset="1" style="stop-color:#272D39"/>
</linearGradient>
<path fill="url(#SVGID_28_)" d="M632.768,445.174c1.053,3.731,2.735,7.062,5.047,9.99c2.312,2.93,5.31,5.287,8.995,7.072
	c3.684,1.785,8.136,2.678,13.354,2.678c3.936,0,7.563-0.527,10.883-1.579c3.318-1.053,6.271-2.369,8.857-3.948
	c2.585-1.579,4.782-3.25,6.591-5.013c1.808-1.761,3.193-3.375,4.154-4.84l-3.845-6.454c-1.373,1.465-2.85,2.849-4.429,4.153
	s-3.273,2.449-5.081,3.434c-1.809,0.984-3.731,1.763-5.768,2.334c-2.037,0.573-4.2,0.858-6.488,0.858
	c-2.472,0-4.601-0.595-6.386-1.785c-1.785-1.189-3.228-2.791-4.325-4.807c-1.099-2.014-1.889-4.348-2.369-7.003
	c-0.475-2.619-0.667-5.396-0.585-8.327c-7.111,1.201-14.061,4.451-19.731,7.815C631.895,441.583,632.265,443.391,632.768,445.174z"
	/>
<linearGradient id="SVGID_29_" gradientUnits="userSpaceOnUse" x1="631.2373" y1="411.5137" x2="695.252" y2="411.5137">
	<stop  offset="0" style="stop-color:#333B48;stop-opacity:0.8"/>
	<stop  offset="1" style="stop-color:#272D39"/>
</linearGradient>
<path fill="url(#SVGID_29_)" d="M669.708,428.421c3.249-1.075,6.431-2.448,9.544-4.12c3.112-1.67,5.858-3.661,8.239-5.974
	c2.38-2.311,4.279-4.943,5.699-7.896c1.418-2.953,2.104-6.26,2.06-9.922c-0.046-2.426-0.492-4.691-1.339-6.798
	c-0.848-2.104-2.141-3.924-3.88-5.458c-1.74-1.533-3.938-2.747-6.591-3.64c-2.655-0.893-5.792-1.339-9.407-1.339
	c-6.042,0-11.649,1.316-16.821,3.948c-5.174,2.633-9.682,6.237-13.526,10.814c-3.846,4.577-6.866,9.921-9.063,16.032
	c-2.197,6.11-3.319,12.646-3.364,19.603c-0.023,2.056-0.078,4.081,0.197,6.08c5.672-3.364,12.545-6.614,19.545-7.815
	c0-0.04,0-0.079,0-0.118c1-0.006,0.869-0.029,1.213-0.043c1.266-0.178,2.631-0.285,3.897-0.316c1.224-0.147,2.535-0.329,3.869-0.567
	C663.184,430.32,666.457,429.496,669.708,428.421z M651.513,423.854c0.183-2.014,0.48-4.199,0.893-6.558
	c0.412-2.356,0.949-4.714,1.613-7.071c0.663-2.357,1.487-4.623,2.472-6.798c0.984-2.174,2.117-4.085,3.399-5.733
	c1.28-1.647,2.746-2.975,4.394-3.982c1.648-1.006,3.479-1.511,5.493-1.511c2.151,0,3.821,0.802,5.013,2.403
	c1.189,1.604,1.83,4.098,1.922,7.484c0.045,2.289-0.332,4.395-1.133,6.316c-0.801,1.923-1.865,3.686-3.192,5.287
	c-1.328,1.603-2.873,3.011-4.635,4.223c-1.763,1.214-3.582,2.255-5.459,3.124c-1.877,0.87-3.753,1.534-5.63,1.991
	C654.785,423.488,653.068,423.764,651.513,423.854z"/>
<path fill="none" d="M95.22,434H92.9c0.385,1,0.965,2.09,1.74,3.248c0.772,1.16,1.643,2.376,2.61,3.438
	c0.965,1.064,2.053,2.007,3.263,2.733c1.208,0.726,2.488,1.113,3.843,1.113c0.772,0,1.545-0.133,2.32-0.423
	c1.835-0.675,3.285-1.926,4.35-3.763c1.063-1.836,1.835-4.008,2.32-6.522c-2.805,0.289-5.705,0.257-8.7,0.305
	C101.648,434.18,98.505,434,95.22,434z"/>
<path display="none" fill="#FFB01F" d="M262.557,385c-0.195,1-0.605,1.771-1.232,3.604c-0.63,1.839-1.547,3.688-2.755,5.573
	c-1.21,1.885-2.733,3.574-4.568,5.071c-1.837,1.5-3.965,2.245-6.38,2.245c-2.127,0-4.166-0.774-5.326-2.321
	c-1.935-2.416-3.295-6.331-3.295-11.747v-2.175c0-0.675,0.443-1.16,0.541-1.449c0.482-2.514,1.09-4.764,1.43-6.214
	c0.338-1.451,0.705-2.588,0.705-2.588h-3.045c-0.195,1-0.413,1.911-0.652,3.748c-0.243,1.837-0.413,4.099-0.508,6.514
	c-0.445,1.826-0.945,3.875-1.493,5.998c0.43,1.059,0.834,2.173,1.219,3.271c0.191-0.694,0.382-1.373,0.564-2.048
	c0.192,1.646,0.53,3.153,1.015,4.506c0.483,1.354,1.16,2.566,2.03,3.628c1.741,2.128,4.01,3.192,6.815,3.192
	c2.803,0,5.268-0.819,7.396-2.464c2.125-1.643,3.915-3.527,5.365-5.654c1.45-2.125,2.585-4.209,3.408-6.289
	c0.82-2.077,1.328-3.402,1.522-4.402H262.557z"/>
<path display="none" fill="#FFB01F" d="M147.567,404c-0.638,2-1.32,3.801-2.04,5.52c-0.069,0.384-0.138,0.758-0.201,1.117
	c-0.342,1.938-0.562,3.186-0.66,3.766c-0.17,0.993-0.308,1.979-0.428,2.931c2.208-3.573,4.093-8.333,5.648-13.333H147.567z"/>
<path display="none" fill="none" d="M416.558,397.133c0.725-3.77,1.087-7.051,1.087-10.146c0-2.803-0.412-5.403-1.232-7.096
	c-0.823-1.689-2.298-2.891-4.423-2.891h-0.58c-2.319,1-4.448,1.541-6.38,3.184c-1.935,1.645-3.675,4.056-5.22,6.811
	c-1.549,2.755-2.901,5.779-4.062,9.451c-1.159,3.676-2.079,7.555-2.755,11.555h20.881C414.938,405,415.832,400.902,416.558,397.133z
	"/>
<path display="none" fill="#333B48" d="M441.571,418.987c2.414-5.222,4.252-9.987,5.51-14.987h-2.321
	c-0.58,2-1.474,4.981-2.682,7.882c-0.486,1.164-1.021,2.44-1.585,3.63c0.233,1.416,0.475,2.793,0.726,4.227
	C441.332,419.501,441.461,419.226,441.571,418.987z"/>
<path display="none" fill="none" d="M480.04,440.646c0.984-1.165,1.939-2.485,2.857-4.009c1.545-2.567,2.947-5.497,4.205-8.791
	c1.255-3.295,2.32-6.636,3.189-10.028c0.096-0.58,0.168-1.162,0.218-1.742c0.048-0.58,0.168-1.163,0.362-1.745
	c0.58-3.682,1.038-6.613,1.378-8.793c0.338-2.179,0.652-4.188,0.943-6.028c0.289-1.84,0.434-2.81,0.434-2.907
	c-0.194-5.521-1.137-10.454-2.827-13.942c-1.692-3.488-4.375-5.66-8.047-5.66h-0.871c-2.411,1-4.629,1.471-6.655,3.025
	C478.42,393.49,480.747,413.248,480.04,440.646z"/>
<path display="none" fill="none" d="M468.542,388.611c-1.74,3.1-3.19,6.708-4.351,10.825s-2.08,8.502-2.755,13.15
	c-0.58,4.265-0.87,8.187-0.87,11.771c0,6.201,0.941,11.215,2.827,15.042c1.885,3.827,4.857,5.739,8.919,5.739
	c2.029,0,3.915-0.775,5.654-2.324c0.708-0.631,1.396-1.368,2.073-2.168c0.707-27.398-1.62-46.728-4.813-60.193
	c-0.249,0.19-0.497,0.389-0.739,0.6C472.262,382.992,470.281,385.512,468.542,388.611z"/>
<linearGradient id="SVGID_30_" gradientUnits="userSpaceOnUse" x1="448.8955" y1="386.1631" x2="482.7212" y2="444.7509">
	<stop  offset="0.626" style="stop-color:#414E66"/>
	<stop  offset="1" style="stop-color:#272D39"/>
</linearGradient>
<path display="none" fill="url(#SVGID_30_)" d="M477.967,442.814c-1.739,1.549-3.625,2.324-5.654,2.324
	c-4.062,0-7.034-1.912-8.919-5.739c-1.886-3.827-2.827-8.841-2.827-15.042c0-3.584,0.29-7.506,0.87-11.771
	c0.675-4.648,1.595-9.033,2.755-13.15s2.61-7.726,4.351-10.825c1.739-3.1,3.72-5.619,5.945-7.559c0.242-0.211,0.49-0.409,0.739-0.6
	c-0.483-2.037-0.985-3.941-1.5-5.718c-4.353,0.662-8.334,1.979-11.928,3.981c-5.365,2.991-9.74,7.817-13.123,14.474
	c-1.837,3.666-3.263,7.741-4.278,12.229c-1.015,4.485-1.522,8.997-1.522,13.532c0,2.221,0.12,4.366,0.363,6.439
	c0.24,2.075,0.652,4.028,1.232,5.861c1.74,5.887,4.735,10.275,8.99,13.171c4.253,2.896,9.521,4.341,15.806,4.341
	c4.014,0,7.537-0.79,10.581-2.354c0.077-1.957,0.144-3.883,0.192-5.764C479.363,441.446,478.675,442.184,477.967,442.814z"/>
<path display="none" fill="none" d="M551.049,480c1.835,0,3.986-0.492,6.452-1.705c2.465-1.213,4.568-3.266,6.308-6.274
	c2.223-3.784,4.156-8.315,5.8-13.651c1.644-5.341,2.996-10.662,4.062-16.001c-4.545,4.256-10.006,6.388-16.387,6.388
	c-0.678,0-1.329-0.021-1.957-0.068c-0.63-0.05-1.33-0.07-2.103-0.07c-2.299-0.279-4.435-0.776-6.419-1.475
	c0.048,10.659,1.008,21.619,3.187,32.944c0.11,0.006,0.222-0.087,0.332-0.087H551.049z"/>
<path display="none" fill="none" d="M549.251,415.444c0.811-5.173,1.789-10.174,2.894-14.975c-1.07,3.818-1.927,7.851-2.546,12.117
	C549.466,413.562,549.353,414.511,549.251,415.444z"/>
<path display="none" fill="none" d="M548.728,424.213c0,6.298,0.943,11.359,2.828,15.187s4.857,5.739,8.918,5.739
	c2.513,0,4.833-1.191,6.96-3.575c2.125-2.384,4.011-5.427,5.656-9.126c-1.16-1.46-1.74-3.406-1.74-5.84
	c0.095-0.874,0.337-1.676,0.725-2.406c0.386-0.729,1.016-1.286,1.885-1.674c0.192-0.095,0.483-0.145,0.87-0.145
	c0.966,0,1.546,0.387,1.74,1.16c0.675-1.74,1.433-3.673,1.919-5.801L582,399.606v-3.045c0-5.51-1.314-10.433-3.004-13.915
	c-1.693-3.479-4.554-5.646-8.228-5.646h-0.725c-2.707,1-5.173,1.689-7.395,3.625c-2.226,1.939-4.183,4.672-5.874,7.771
	s-3.143,6.817-4.349,10.934c-0.101,0.339-0.187,0.743-0.282,1.086c-1.104,4.801-2.083,9.829-2.894,15.002
	C548.905,418.57,548.728,421.522,548.728,424.213z"/>
<path display="none" fill="#333B48" d="M543.943,478.925c-2.128-0.774-4.038-2.08-5.728-3.915c-1.693-1.838-3.314-4.35-4.376-7.54
	c-1.066-3.19-1.84-7.25-1.84-12.181c0-0.774,0-1.5,0-2.175c0-0.678,0.535-1.114,0.633-2.114h-2.32c-0.29,2-0.436,4.802-0.436,6.929
	c0,3.771,0.411,7.235,1.233,10.425c0.819,3.191,2.103,5.938,3.842,8.26c1.74,2.319,3.915,4.104,6.525,5.359
	c2.604,1.254,5.687,1.879,9.252,1.884c-0.262-1.221-0.504-2.438-0.738-3.654C547.974,480.077,545.958,479.657,543.943,478.925z"/>
<linearGradient id="SVGID_31_" gradientUnits="userSpaceOnUse" x1="546.8174" y1="429.043" x2="614.125" y2="429.043">
	<stop  offset="0.374" style="stop-color:#414E66"/>
	<stop  offset="0.6575" style="stop-color:#404C64"/>
	<stop  offset="1" style="stop-color:#272D39"/>
</linearGradient>
<path display="none" fill="url(#SVGID_31_)" d="M611.806,404c-0.774,3-1.74,5.684-2.9,8.679c-1.159,2.998-2.515,5.79-4.061,8.399
	c-1.547,2.609-3.335,4.949-5.364,7.028c-2.03,2.079-4.256,3.55-6.67,4.42c0.095-0.29,0.337-1.5,0.725-3.627
	c0.385-2.125,0.869-4.81,1.45-8.049c0.58-3.238,1.231-6.888,1.958-10.947c0.725-4.06,1.472-8.169,2.247-12.326
	c0.772-4.155,1.569-8.171,2.393-12.086c0.82-3.915,1.57-7.491,2.248-10.491H585.56c0,0-0.049,0.438-0.146,1.066
	s-0.217,1.318-0.362,2.091c-0.145,0.774-0.29,1.565-0.435,2.388s-0.268,1.471-0.362,1.953c-1.258-2.513-2.973-4.544-5.148-6.091
	c-2.175-1.545-5.002-2.321-8.482-2.321c-3.479,0-6.888,0.242-10.223,0.725c-0.275,0.04-0.545,0.108-0.818,0.156
	c-2.703,7.625-5.299,16.193-7.438,25.504c0.096-0.344,0.182-0.695,0.282-1.034c1.206-4.117,2.657-7.726,4.349-10.825
	s3.648-6.047,5.874-7.986c2.222-1.937,4.688-2.625,7.395-3.625h0.725c3.674,0,6.534,2.168,8.228,5.646
	c1.689,3.482,3.004,8.405,3.004,13.915v3.045c0,0-7.699,45.477-21.289,45.532c-4.061,0.017-7.152-1.912-9.037-5.739
	s-2.887-8.889-2.887-15.187c0-2.69,0.147-5.616,0.493-8.769c-1.568,9.988-2.512,20.617-2.461,31.699
	c1.984,0.699,4.113,1.196,6.412,1.476c0.772,0,1.469,0.021,2.099,0.072c0.628,0.048,1.277,0.072,1.955,0.072
	c6.381,0,11.841-2.125,16.386-6.381c-1.065,5.339-2.419,10.674-4.062,16.015c-1.645,5.336-3.578,9.896-5.801,13.681
	c-1.739,3.009-3.843,5.004-6.308,6.217c-2.466,1.213-4.617,1.705-6.452,1.705h-0.726c-0.11,0-0.222,0.166-0.332,0.158
	c0.234,1.217,0.477,2.775,0.738,3.842c0.01,0,0.019,0,0.028,0c9.281,0,17.401-3.117,24.361-9.209
	c6.96-6.089,11.793-15.261,14.501-27.441c0.095-0.481,0.265-1.298,0.507-2.411c0.24-1.11,0.508-2.278,0.798-3.488
	c0.29-1.208,0.555-2.373,0.798-3.485c0.24-1.11,0.41-1.91,0.508-2.395c0.289,0,0.627-0.097,1.014-0.291
	c2.996-0.966,5.606-2.586,7.831-4.857c2.223-2.271,4.18-4.858,5.873-7.76c1.689-2.899,3.093-5.945,4.204-9.186
	c1.111-3.237,2.104-6.477,2.973-9.477H611.806z"/>
<linearGradient id="SVGID_32_" gradientUnits="userSpaceOnUse" x1="564.1416" y1="417.4795" x2="532.8708" y2="399.4253">
	<stop  offset="0.063" style="stop-color:#414E66"/>
	<stop  offset="0.1496" style="stop-color:#414E66"/>
	<stop  offset="0.6811" style="stop-color:#272D39"/>
</linearGradient>
<path display="none" fill="url(#SVGID_32_)" d="M549.477,415.444c0.104-0.934,0.218-1.883,0.352-2.857
	c0.627-4.267,1.494-8.299,2.577-12.117c2.167-9.311,4.795-17.878,7.532-25.503c-3.08,0.532-6.062,1.526-8.935,3.034
	c-3.23,1.646-6.167,3.892-8.81,6.743c-2.644,2.852-4.896,6.55-6.754,11.092c-1.469,3.48-2.538,7.203-3.32,11.166
	c-0.785,3.965-1.119,7.928-1.119,11.89c0,0.776,0,1.501,0,2.176c0,0.678-0.007,1.355,0.09,2.03
	c0.489,8.217,2.712,14.332,6.727,18.343c2.567,2.568,5.628,4.463,9.198,5.703C546.962,436.062,547.889,425.433,549.477,415.444z"/>
<path display="none" fill="none" d="M631.039,433.931c-0.541-6.007-0.702-11.711-0.571-17.117c-0.252,2.692-0.391,5.233-0.391,7.589
	C630.077,428.027,630.399,431.201,631.039,433.931z"/>
<path display="none" fill="none" d="M655.236,397.133c0.725-3.77,1.087-7.051,1.087-10.146c0-2.803-0.412-5.403-1.232-7.096
	c-0.823-1.689-2.298-2.891-4.423-2.891h-0.58c-2.319,1-4.447,1.541-6.38,3.184c-1.935,1.645-3.675,4.056-5.22,6.811
	c-1.549,2.755-2.901,5.779-4.061,9.451c-1.16,3.676-2.08,7.555-2.756,11.555h20.881C653.616,405,654.511,400.902,655.236,397.133z"
	/>
<linearGradient id="SVGID_33_" gradientUnits="userSpaceOnUse" x1="611.2266" y1="411.4443" x2="638.0469" y2="411.4443">
	<stop  offset="0" style="stop-color:#272D39"/>
	<stop  offset="0.4685" style="stop-color:#414E66"/>
	<stop  offset="0.6181" style="stop-color:#414E66"/>
</linearGradient>
<path display="none" fill="url(#SVGID_33_)" d="M630.077,424.402c0-2.355,0.139-4.896,0.391-7.589
	c0.407-16.956,3.729-30.903,7.579-41.543c-2.306,0.678-4.601,1.58-6.882,2.73c-5.561,2.805-10.176,7.395-13.849,13.775
	c-1.838,3.287-3.312,7.032-4.422,11.238c-1.113,4.205-1.668,8.482-1.668,12.833c0,3.867,0.478,7.637,1.439,11.311
	c0.957,3.675,2.541,7.01,4.749,10.005c2.206,2.998,5.061,5.535,8.565,7.613c2.021,1.2,4.322,2.142,6.884,2.842
	c-0.83-4.719-1.429-9.283-1.825-13.688C630.399,431.201,630.077,428.027,630.077,424.402z"/>
<path display="none" fill="#333B48" d="M630.947,412.271c0.195-0.965,0.293-2.271,0.293-2.271h33.042
	c2.524-6,3.786-12.904,3.786-18.32c0-4.93-1.209-8.844-3.625-11.986c-2.417-3.14-6.477-4.989-12.18-5.667
	c-0.774-0.097-1.501-0.139-2.176-0.188c-0.678-0.048-1.354-0.059-2.03-0.059c-3.362,0-6.699,0.509-10.011,1.483
	c-3.851,10.64-7.172,24.47-7.579,41.426C630.598,415.295,630.75,413.756,630.947,412.271z M634.428,396.552
	c1.159-3.671,2.512-6.737,4.061-9.493c1.545-2.756,3.285-5.305,5.22-6.95c1.933-1.643,4.061-2.108,6.38-3.108h0.58
	c2.125,0,3.6,1.275,4.423,2.965c0.82,1.693,1.232,4.154,1.232,6.957c0,3.095-0.362,6.335-1.087,10.104
	c-0.726,3.771-1.62,7.975-2.684,10.975h-20.881C632.348,404,633.268,400.228,634.428,396.552z"/>
<path display="none" fill="#333B48" d="M683.438,404c-0.579,2-1.474,4.981-2.682,7.882c-1.21,2.899-2.66,5.97-4.351,9.015
	c-1.691,3.045-3.649,6.067-5.872,8.968c-2.226,2.9-4.64,5.535-7.25,7.855c-2.61,2.319-5.416,4.194-8.411,5.594
	c-2.997,1.402-6.14,2.109-9.426,2.109c-1.449,0-2.899-0.142-4.35-0.433c-3.965-0.772-6.792-2.921-8.483-6.45
	c-0.651-1.358-1.176-2.898-1.575-4.61c0.396,4.404,0.995,8.97,1.825,13.688c1.878,0.514,3.892,0.899,6.058,1.146
	c0.676,0.095,1.329,0.168,1.958,0.218c0.628,0.047,1.28,0.072,1.958,0.072c5.896,0,11.213-1.473,15.951-4.423
	c4.734-2.947,8.892-6.62,12.47-11.021c3.575-4.397,6.573-9.404,8.991-14.623c2.414-5.222,4.252-9.987,5.51-14.987H683.438z"/>
<path display="none" fill="none" d="M322.162,374c0.8-4,1.621-7.909,2.45-11.681c-1.186,3.668-2.298,7.681-3.33,11.681H322.162z"/>
<linearGradient id="SVGID_34_" gradientUnits="userSpaceOnUse" x1="328.874" y1="338.2549" x2="383.4331" y2="432.754">
	<stop  offset="0.2835" style="stop-color:#FFA61F"/>
	<stop  offset="1" style="stop-color:#FFB62E"/>
</linearGradient>
<path display="none" fill="url(#SVGID_34_)" d="M325.052,361.035c0.58-1.74,1.255-3.553,2.03-5.438
	c0.772-1.886,1.763-3.601,2.973-5.147c1.208-1.546,2.633-2.87,4.277-3.884c1.643-1.016,3.626-1.566,5.946-1.566h0.87
	c3.574,0,6.235,1.348,7.974,3.377l1.887-3.313c-3.481-3.962-8.363-5.934-14.646-5.934c-2.235,0-4.341,0.192-6.339,0.534
	c-1.716,6.698-3.579,14.394-5.413,22.738C324.759,361.946,324.902,361.483,325.052,361.035z"/>
<linearGradient id="SVGID_35_" gradientUnits="userSpaceOnUse" x1="270.1689" y1="372.1426" x2="324.836" y2="466.8287">
	<stop  offset="0.1496" style="stop-color:#FFA61F"/>
	<stop  offset="1" style="stop-color:#FFDC22"/>
</linearGradient>
<path display="none" fill="url(#SVGID_35_)" d="M321.282,374c1.032-4,2.144-7.97,3.33-11.638c1.833-8.345,3.696-16.016,5.413-22.713
	c-5.352,0.918-9.869,3.062-13.527,6.439c-3.288,2.899-5.923,6.778-7.903,11.708c-1.982,4.93-3.65,10.203-5.003,16.203h-8.555
	l-0.435,2h8.555c-0.388,2-0.848,4.287-1.377,6.945c-0.533,2.66-1.088,5.612-1.667,8.657c-0.58,3.044-1.16,6.165-1.741,9.259
	c-0.58,3.095-1.112,6.02-1.595,8.726c-0.485,2.707-0.895,5.112-1.233,7.19c-0.34,2.08-0.604,3.56-0.797,4.43
	c-0.485,2.707-1.113,6.236-1.885,10.588c-0.774,4.35-1.717,8.945-2.827,13.777c-1.113,4.833-2.418,9.593-3.915,14.284
	c-1.5,4.688-3.263,8.723-5.293,12.108c-1.837,3.092-4.013,5.242-6.525,6.452c-2.515,1.208-4.69,1.813-6.525,1.813
	c-2.225-0.097-4.423-0.557-6.598-1.377c-2.175-0.823-4.132-2.152-5.872-3.988c-1.741-1.837-2.896-4.351-3.958-7.539
	c-1.065-3.19-1.347-7.252-1.347-12.182c0-0.774,0-1.499,0-2.174c0-0.679-0.448-0.97-0.351-1.97h-2.32
	c-0.29,2-0.435,4.729-0.435,6.856c0,3.771,0.41,7.198,1.232,10.39c0.821,3.189,2.103,5.919,3.843,8.239
	c1.74,2.319,3.916,4.119,6.525,5.425c2.61,1.305,5.703,1.952,9.281,1.952c9.28,0,17.4-3.05,24.361-9.14
	c6.96-6.09,11.793-15.228,14.501-27.408c0.58-2.61,1.135-5.22,1.667-7.83c0.53-2.61,1.038-5.124,1.522-7.542
	c0.483-2.414,0.893-4.567,1.233-6.452c0.337-1.885,0.603-3.408,0.797-4.567c0.192-0.966,0.555-2.948,1.088-5.946
	c0.53-2.994,1.182-6.572,1.958-10.729c0.772-4.155,1.643-8.853,2.61-13.688c0.965-4.832,2.03-8.559,3.19-14.559h1
	c0.152-1,0.306-1,0.459-2H321.282z"/>
<linearGradient id="SVGID_36_" gradientUnits="userSpaceOnUse" x1="92.9004" y1="439.1328" x2="113.3457" y2="439.1328">
	<stop  offset="0" style="stop-color:#FFB01F"/>
	<stop  offset="1" style="stop-color:#FFC829"/>
</linearGradient>
<path display="none" fill="url(#SVGID_36_)" d="M95.22,434H92.9c0.385,1,0.965,2.09,1.74,3.248c0.772,1.16,1.643,2.506,2.61,3.568
	c0.965,1.065,2.053,1.942,3.263,2.669c1.208,0.725,2.488,1.08,3.843,1.08c0.772,0,1.545-0.148,2.32-0.438
	c1.835-0.675,3.285-1.935,4.35-3.771c1.063-1.835,1.835-4.142,2.32-6.656c-2.805,0.289-5.705,0.385-8.7,0.433
	C101.648,434.182,98.505,434,95.22,434z"/>
<linearGradient id="SVGID_37_" gradientUnits="userSpaceOnUse" x1="89.9971" y1="400.7168" x2="145.5278" y2="400.7168">
	<stop  offset="0" style="stop-color:#FFB01F"/>
	<stop  offset="1" style="stop-color:#FFC829"/>
</linearGradient>
<path display="none" fill="url(#SVGID_37_)" d="M141.042,417.805c-2.515,3.53-5.56,6.358-9.135,8.483
	c0.87-3.48,1.305-7.298,1.305-11.456c0-1.739-0.072-3.503-0.217-5.292c-0.146-1.788-0.315-3.503-0.508-5.148
	c-0.29-2.415-0.725-5.024-1.305-7.83c-0.58-2.803-1.113-5.51-1.595-8.12c-0.485-2.61-1.271-5.025-1.656-7.25
	c-0.388-2.224-0.931-4.011-0.931-5.365v-0.871c1-3.285,1.801-5.412,4.121-6.38c1.063-0.385,2.301-0.579,3.366-0.579
	c1.643,0,3.181,0.483,4.438,1.449l1.349-1.74c-2.805-2.319-6.021-3.479-9.693-3.479c-1.355,0-2.987,0.242-4.92,0.725
	c-2.899,0.678-5.214,2.08-6.955,4.205c-0.493,0.604-0.94,1.239-1.363,1.896c3.973,16.7,8.73,40.884,10.347,66.155
	c0.224-0.324,0.452-0.647,0.664-0.986c1.305-2.078,2.248-4.325,2.828-6.742c4.156-2.125,7.806-5.171,10.948-9.136
	c0.734-0.927,1.436-1.944,2.109-3.034c0.12-0.952,0.258-1.918,0.428-2.911c0.098-0.58,0.317-1.835,0.66-3.771
	c0.063-0.361,0.132-0.746,0.201-1.129C144.176,412.728,142.682,415.503,141.042,417.805z"/>
<linearGradient id="SVGID_38_" gradientUnits="userSpaceOnUse" x1="136.6333" y1="390.3408" x2="67.8278" y2="459.1463">
	<stop  offset="0" style="stop-color:#FFA41F"/>
	<stop  offset="1" style="stop-color:#FFC829"/>
</linearGradient>
<path display="none" fill="url(#SVGID_38_)" d="M114.794,376.551L104.5,404.536l2.32,0.146l6.236-17.257
	c-0.098,0.871-0.17,1.766-0.218,2.684c-0.05,0.919-0.072,1.765-0.072,2.537c0,0.58,0.022,1.16,0.072,1.74
	c0.048,0.58,0.072,1.112,0.072,1.595c0,0.195,0.048,1.064,0.146,2.61c0.095,1.548,0.217,3.287,0.362,5.22
	c0.145,1.935,0.29,3.82,0.435,5.655c0.145,1.838,0.218,3.19,0.218,4.061c0.095,0.87,0.167,2.029,0.217,3.48
	c0.048,1.45,0.073,3.045,0.073,4.785c0,1.547-0.05,3.143-0.146,4.784c-0.097,1.646-0.242,3.288-0.435,4.931
	c-2.225,0.195-4.618,0.248-7.178,0.391c-2.563,0.146-5.292,0.102-8.192,0.102c-1.355,0-2.733,0-4.133,0
	c-1.402,0-2.828,0.186-4.278,0.088v2.32c0.965,1.354,1.885,2.707,2.755,4.06c0.87,1.355,1.788,2.661,2.755,3.915
	c0.965,1.258,2.053,2.37,3.263,3.335c1.208,0.968,2.633,1.693,4.278,2.176c1.643,0.483,3.14,0.726,4.495,0.726
	c1.45,0,3.14-0.242,5.075-0.726c1.741-0.386,3.601-1.11,5.583-2.176c1.98-1.062,3.843-2.393,5.583-3.986
	c1.457-1.335,2.751-2.85,3.904-4.524c-1.616-25.271-6.373-49.455-10.346-66.155C116.274,372.714,115.418,374.542,114.794,376.551z
	 M111.026,440.354c-1.065,1.837-2.515,3.095-4.35,3.77c-0.775,0.29-1.548,0.436-2.32,0.436c-1.354,0-2.635-0.362-3.843-1.087
	c-1.21-0.727-2.297-1.618-3.263-2.684c-0.967-1.063-1.837-2.38-2.61-3.54C93.866,436.09,93.285,435,92.9,434h2.32
	c3.285,0,6.428,0.182,9.425,0.131c2.996-0.047,5.896-0.115,8.7-0.404C112.861,436.241,112.089,438.519,111.026,440.354z"/>
<linearGradient id="SVGID_39_" gradientUnits="userSpaceOnUse" x1="180.2129" y1="429.3408" x2="123.8462" y2="372.9741">
	<stop  offset="0" style="stop-color:#FFA61A"/>
	<stop  offset="1" style="stop-color:#FFDE53"/>
</linearGradient>
<path display="none" fill="url(#SVGID_39_)" d="M161.123,439.855c-0.527-1.734-0.795-4.035-0.795-6.973
	c0-2.319,0.146-5.013,0.435-8.154c0.29-3.141,0.82-6.725,1.595-10.785c0.095-0.58,0.313-1.777,0.652-3.615
	c0.337-1.836,0.726-4.031,1.16-6.595c0.435-2.559,0.918-5.312,1.45-8.262c0.531-2.948,1.015-5.773,1.451-8.481
	c0.435-2.705,0.82-5.174,1.16-7.301c0.337-2.125,0.603-3.689,0.798-4.689h-17.627c-0.1,1-0.319,2.588-0.659,4.763
	c-0.342,2.176-0.757,4.644-1.244,7.349c-0.49,2.707-0.977,5.547-1.464,8.494c-0.489,2.951-0.976,5.713-1.463,8.273
	c-0.397,2.083-0.744,3.971-1.042,5.638c0.72-1.72,1.401-3.517,2.04-5.517h2.32c-1.555,5-3.44,9.757-5.648,13.33
	c-0.29,2.29-0.442,4.455-0.442,6.504c0,4.156,0.555,7.777,1.667,10.869c1.11,3.096,2.658,5.654,4.64,7.684
	c1.98,2.03,4.35,3.721,7.105,4.736c1.292,0.476,2.645,0.873,4.054,1.165C161.124,445.438,161.075,442.626,161.123,439.855z"/>
<linearGradient id="SVGID_40_" gradientUnits="userSpaceOnUse" x1="199.1509" y1="350.0459" x2="199.1509" y2="449.0002">
	<stop  offset="0.2835" style="stop-color:#FFA61F"/>
	<stop  offset="1" style="stop-color:#FFC253"/>
</linearGradient>
<path display="none" fill="url(#SVGID_40_)" d="M235.978,391.327c-0.641,2.485-1.35,5.168-2.132,8.062
	c-1.45,5.365-3.117,10.731-5.002,16.097s-3.988,10.367-6.308,15.008c-2.32,4.64-4.835,8.266-7.541,10.875
	c-1.645,1.548-3.189,2.32-4.64,2.32c-0.58,0-1.16-0.146-1.74-0.435c-1.16-0.58-1.982-1.715-2.465-3.408
	c-0.484-1.689-0.725-3.601-0.725-5.728c0-1.933,0.146-3.915,0.435-5.945c0.29-2.029,0.58-3.865,0.87-5.511
	c0.675-3.382,1.425-7.323,2.248-11.817c0.82-4.495,1.618-8.99,2.393-13.485c0.773-4.495,1.523-8.97,2.248-12.885
	c0.725-3.915,1.28-7.475,1.667-9.475h-17.256c-0.484,3-1.064,5.947-1.74,9.765c-0.677,3.821-1.402,7.798-2.175,11.663
	c-1.257,4.64-2.732,9.709-4.423,15.074c-1.692,5.365-3.603,10.428-5.728,15.115c-2.127,4.689-4.447,8.717-6.96,12.052
	c-2.515,3.335-5.173,5.427-7.975,6.102c-0.195,0.098-0.436,0.229-0.725,0.229h-1.015c-2.225,0-3.94-0.945-5.147-2.686
	c-0.411-0.592-0.746-1.455-1.018-2.347c-0.048,2.771,0,5.621,0.142,8.471c1.595,0.331,3.263,0.562,5.008,0.562h1.015
	c0.192,0,0.385-0.288,0.58-0.335c0.193-0.05,0.337-0.204,0.435-0.204c2.32-0.389,4.495-1.394,6.525-2.895
	c2.03-1.497,3.865-3.368,5.51-5.542c1.643-2.177,3.118-4.607,4.423-7.268c1.305-2.657,2.44-5.349,3.408-8.056
	c0.385-0.871,0.725-1.744,1.015-2.613c0.29-0.871,0.58-1.743,0.87-2.613c-0.195,1.645-0.362,3.214-0.507,4.712
	c-0.146,1.499-0.218,2.924-0.218,4.276c0,13.34,5.8,20.011,17.4,20.011c2.415,0,4.735-0.87,6.96-2.609
	c2.223-1.741,4.351-4.084,6.381-7.034c2.03-2.947,3.915-6.354,5.655-10.223c1.741-3.865,3.335-7.878,4.786-12.035
	c1.45-4.155,2.777-8.313,3.987-12.47c0.98-3.373,1.877-6.545,2.699-9.538C236.812,393.466,236.408,392.386,235.978,391.327z"/>
<path display="none" fill="none" d="M273.722,427.085c-0.387,3.82-0.58,7.033-0.58,9.644c0,2.319,0.145,3.965,0.435,4.93
	c0.193,0.87,0.603,1.475,1.233,1.813c0.627,0.339,1.328,0.507,2.103,0.507c1.16,0,2.125-0.29,2.9-0.869
	c0.011-0.009,0.023-0.019,0.035-0.026c0.244-12.572-1.227-24.033-3.679-34.277c-0.313,2.067-0.622,4.126-0.923,6.171
	C274.614,419.232,274.107,423.268,273.722,427.085z"/>
<path display="none" fill="#FFB01F" d="M277.202,402.072c0.675-4.351,1.327-8.339,1.958-11.963c0.627-3.626,1.182-6.961,1.667-9.622
	c0.482-2.657,0.772-4.487,0.87-5.487h-17.4c-0.038,1-0.103,1.129-0.183,1.712c4.594,8.678,9.057,19.474,12.054,31.996
	C276.506,406.477,276.85,404.33,277.202,402.072z"/>
<polygon display="none" fill="#FFB01F" points="286.627,346 269.082,346 266.616,361 284.017,361 "/>
<path display="none" fill="#FFB01F" d="M298.953,405c-1.16,3-2.417,7.526-3.77,11.441c-1.355,3.915-2.853,7.57-4.495,11.049
	c-1.645,3.48-3.36,6.577-5.148,9.333c-1.779,2.739-3.676,4.82-5.693,6.271c-0.024,1.241-0.07,2.492-0.128,3.756
	c0.997-0.634,1.972-1.412,2.921-2.361c2.851-2.851,5.438-6.43,7.758-10.731c2.32-4.301,4.397-8.951,6.235-14.124
	c1.835-5.17,3.383-10.633,4.64-14.633H298.953z"/>
<linearGradient id="SVGID_41_" gradientUnits="userSpaceOnUse" x1="256.1758" y1="412.8359" x2="279.8467" y2="412.8359">
	<stop  offset="0" style="stop-color:#FFA61F"/>
	<stop  offset="0.1181" style="stop-color:#FFC253"/>
</linearGradient>
<path display="none" fill="url(#SVGID_41_)" d="M279.812,443.109c-0.775,0.579-1.74,0.869-2.9,0.869
	c-0.775,0-1.476-0.168-2.103-0.507c-0.63-0.339-1.04-0.943-1.233-1.813c-0.29-0.965-0.435-2.61-0.435-4.93
	c0-2.61,0.193-5.823,0.58-9.644c0.385-3.817,0.893-7.853,1.522-12.108c0.302-2.045,0.61-4.104,0.923-6.171
	c-2.997-12.521-7.459-23.221-12.054-31.898c-0.128,0.942-0.305,2.086-0.542,3.486c-0.387,2.272-0.823,4.857-1.305,7.757
	c-0.485,2.901-0.992,5.898-1.522,8.991c-0.533,3.095-1.015,5.923-1.45,8.483c-0.435,2.563-0.822,4.689-1.16,6.379
	c-0.34,1.693-0.507,2.588-0.507,2.684c-0.485,2.61-0.847,5.052-1.088,7.323c-0.242,2.271-0.362,4.422-0.362,6.452
	c0,13.535,5.75,20.301,17.256,20.301c2.192,0,4.286-0.649,6.287-1.92c0.058-1.263,0.104-2.52,0.128-3.761
	C279.835,443.091,279.823,443.101,279.812,443.109z"/>
<linearGradient id="SVGID_42_" gradientUnits="userSpaceOnUse" x1="327.1377" y1="338.4766" x2="382.1697" y2="433.7948">
	<stop  offset="0.2835" style="stop-color:#FFA61F"/>
	<stop  offset="1" style="stop-color:#FFB62E"/>
</linearGradient>
<path display="none" fill="url(#SVGID_42_)" d="M364.276,365.654c0.435-2.656,0.845-5.654,1.233-7.654h-17.401l-2.755,16h-23.191
	c-0.154,1-0.308,1-0.459,2h23.361c-0.774,5-1.547,9.242-2.32,13.689c-0.737,4.217-1.378,8.104-1.937,11.496
	c7.179-9.818,14.775-19.051,22.132-27.359C363.407,370.756,363.854,368.236,364.276,365.654z"/>
<path display="none" fill="none" d="M411.409,377c-2.319,1-4.448,1.504-6.38,3.146c-1.935,1.645-3.675,4.137-5.22,6.893
	c-1.549,2.755-2.901,5.795-4.062,9.466c-1.159,3.676-2.079,7.495-2.755,11.495h0.512c6.531-11,13.868-21.602,20.818-30.408
	c-0.665-0.35-1.438-0.592-2.334-0.592H411.409z"/>
<path display="none" fill="none" d="M413.874,408c1.063-3,1.958-7.157,2.684-10.928c0.725-3.769,1.087-7.035,1.087-10.131
	c0-2.803-0.412-5.131-1.232-6.824c-0.477-0.977-1.177-1.874-2.089-2.354c-6.95,8.806-14.287,19.237-20.818,30.237H413.874z"/>
<linearGradient id="SVGID_43_" gradientUnits="userSpaceOnUse" x1="369.4648" y1="432.2227" x2="426.4482" y2="333.5245">
	<stop  offset="0.6614" style="stop-color:#333F55"/>
	<stop  offset="1" style="stop-color:#272D39"/>
</linearGradient>
<path display="none" fill="url(#SVGID_43_)" d="M392.993,408c0.676-4,1.596-7.772,2.755-11.448c1.16-3.671,2.513-6.737,4.062-9.493
	c1.545-2.756,3.285-5.305,5.22-6.95c1.932-1.643,4.061-2.108,6.38-3.108h0.58c0.896,0,1.669,0.393,2.334,0.742
	c0.873-1.107,1.741-2.102,2.601-3.159c-1.046-0.249-2.149-0.409-3.339-0.55c-0.774-0.097-1.501-0.142-2.176-0.191
	c-0.678-0.048-1.354-0.061-2.03-0.061c-5.705,0-11.335,1.41-16.893,4.213c-5.561,2.805-10.176,7.398-13.849,13.779
	c-1.838,3.287-3.312,7.033-4.422,11.24c-1.113,4.205-1.668,8.482-1.668,12.833c0,3.867,0.478,7.638,1.438,11.312
	c0.958,3.675,2.542,7.01,4.75,10.005c0.254,0.346,0.52,0.535,0.791,0.869c3.63-10.405,8.518-20.032,13.978-30.032H392.993z"/>
<linearGradient id="SVGID_44_" gradientUnits="userSpaceOnUse" x1="372.5474" y1="411.834" x2="441.2185" y2="411.834">
	<stop  offset="0.374" style="stop-color:#414E66"/>
	<stop  offset="1" style="stop-color:#272D39"/>
</linearGradient>
<path display="none" fill="url(#SVGID_44_)" d="M437.728,420.995c-1.691,3.045-3.649,6.018-5.872,8.918
	c-2.226,2.9-4.64,5.511-7.25,7.83c-2.61,2.32-5.416,4.183-8.411,5.582c-2.997,1.402-6.14,2.104-9.426,2.104
	c-1.449,0-2.899-0.145-4.35-0.436c-3.966-0.772-6.792-2.923-8.483-6.452c-1.691-3.527-2.537-8.24-2.537-14.139
	c0-3.574,0.29-7.781,0.87-12.131c0.194-0.965,0.293-2.271,0.293-2.271h33.042c2.524-6,3.786-12.904,3.786-18.32
	c0-4.93-1.209-8.844-3.625-11.986c-1.912-2.484-4.87-4.129-8.841-5.069c-0.859,1.058-1.728,2.173-2.601,3.279
	c0.912,0.48,1.612,1.261,2.089,2.237c0.82,1.693,1.232,4.066,1.232,6.869c0,3.095-0.362,6.291-1.087,10.06
	c-0.726,3.771-1.62,7.931-2.684,10.931h-20.369c-5.46,10-10.348,19.627-13.978,30.032c2.085,2.558,4.675,4.831,7.774,6.669
	c3.503,2.08,7.816,3.445,12.941,4.025c0.676,0.095,1.329,0.187,1.958,0.236c0.628,0.047,1.28,0.081,1.958,0.081
	c5.896,0,11.213-1.468,15.951-4.418c4.734-2.947,8.892-6.617,12.47-11.018c3.412-4.196,6.281-8.779,8.639-13.724
	c-0.251-1.435-0.492-2.859-0.726-4.276C439.654,417.378,438.738,419.173,437.728,420.995z"/>
<path display="none" fill="none" d="M511.536,395.336c-0.822,4.84-1.573,9.196-2.248,13.068c-0.678,3.873-1.232,7.067-1.668,9.582
	c-0.435,2.518-0.702,3.921-0.798,4.211c-0.483,3.194-0.797,6-0.942,8.42c-0.145,2.42-0.217,4.45-0.217,6.096
	c0.096,2.712,0.482,4.645,1.159,5.805c0.676,1.163,1.546,1.735,2.61,1.735c0.871,0,1.98-0.45,3.335-1.321
	c1.933-1.449,3.818-3.584,5.656-6.339c1.835-2.755,3.574-5.936,5.22-9.416c1.321-2.8,2.561-5.84,3.727-8.983
	c-2.297-17.108-7.076-30.576-12.806-41.09c-0.188,1.141-0.376,2.27-0.563,3.421C513.178,385.56,512.355,390.497,511.536,395.336z"/>
<linearGradient id="SVGID_45_" gradientUnits="userSpaceOnUse" x1="554.8086" y1="379.4619" x2="491.9425" y2="343.1661">
	<stop  offset="0.0512" style="stop-color:#414E66"/>
	<stop  offset="1" style="stop-color:#272D39"/>
</linearGradient>
<path display="none" fill="url(#SVGID_45_)" d="M516.466,365.715c0.82-4.84,1.569-9.197,2.248-13.07
	c0.675-3.871,1.207-7.089,1.595-9.509c0.385-2.419,0.58-4.136,0.58-4.136h-17.401c0,1-0.218,1.988-0.651,4.658
	c-0.436,2.668-0.992,6.076-1.668,10.152c-0.216,1.299-0.441,2.657-0.672,4.042c4.777,4.916,9.696,11.226,14.068,19.251
	C515.198,373.255,515.831,369.447,516.466,365.715z"/>
<linearGradient id="SVGID_46_" gradientUnits="userSpaceOnUse" x1="528.8369" y1="424.4541" x2="465.9266" y2="388.1328">
	<stop  offset="0.5079" style="stop-color:#414E66"/>
	<stop  offset="1" style="stop-color:#272D39"/>
</linearGradient>
<path display="none" fill="url(#SVGID_46_)" d="M523.644,427.177c-1.646,3.48-3.385,6.661-5.22,9.416
	c-1.838,2.755-3.724,4.89-5.656,6.339c-1.354,0.871-2.464,1.321-3.335,1.321c-1.064,0-1.935-0.572-2.61-1.735
	c-0.677-1.16-1.063-3.093-1.159-5.805c0-1.646,0.072-3.676,0.217-6.096c0.146-2.42,0.459-5.226,0.942-8.42
	c0.096-0.29,0.363-1.693,0.798-4.211c0.436-2.515,0.99-5.709,1.668-9.582c0.675-3.872,1.426-8.229,2.248-13.068
	c0.819-4.839,1.642-9.776,2.465-14.812c0.188-1.151,0.376-2.28,0.563-3.421c-4.372-8.025-9.291-14.336-14.068-19.252
	c-0.493,2.963-1.018,6.104-1.575,9.443c-0.823,4.904-1.668,9.826-2.539,14.756c-0.194,0.196-0.289,0.395-0.289,0.586
	c-1.354-2.513-3.117-4.609-5.293-6.059c-2.175-1.45-4.955-2.578-8.338-2.578h-2.03c-2.33,0-4.56,0.294-6.705,0.621
	c0.515,1.776,1.017,3.309,1.5,5.346c2.026-1.555,4.244-1.967,6.655-2.967h0.871c3.672,0,6.354,2.172,8.047,5.66
	c1.69,3.488,2.633,8.206,2.827,13.728c0,0.098-0.145,1.176-0.434,3.016c-0.291,1.84-0.605,3.902-0.943,6.081
	c-0.34,2.18-0.798,5.139-1.378,8.82c-0.194,0.582-0.314,1.179-0.362,1.759c-0.05,0.58-0.122,1.168-0.218,1.748
	c-0.869,3.393-1.935,6.737-3.189,10.032c-1.258,3.293-2.66,6.225-4.205,8.792c-0.918,1.523-1.873,2.846-2.857,4.011
	c-0.049,1.881-0.115,3.807-0.192,5.764c0.547-0.28,1.084-0.578,1.6-0.909c3.383-2.176,6.282-5.147,8.7-8.917
	c2.03,7.829,7.442,11.744,16.241,11.744c3.382,0,6.5-1.377,9.352-4.132c2.852-2.756,5.461-6.308,7.83-10.658
	c1.624-2.981,3.106-6.277,4.458-9.719c-0.188-1.921-0.411-3.79-0.658-5.626C526.204,421.337,524.965,424.377,523.644,427.177z"/>
<linearGradient id="SVGID_47_" gradientUnits="userSpaceOnUse" x1="533.9766" y1="415.5527" x2="470.9543" y2="379.1668">
	<stop  offset="0.0512" style="stop-color:#414E66"/>
	<stop  offset="1" style="stop-color:#272D39"/>
</linearGradient>
<path display="none" fill="url(#SVGID_47_)" d="M534.229,404h-2.175c-1.16,4-2.441,7.907-3.842,11.868
	c-0.275,0.777-0.559,1.552-0.842,2.317c0.247,1.836,0.471,3.709,0.658,5.63c0.62-1.581,1.215-3.203,1.778-4.829
	C531.595,413.815,533.068,409,534.229,404z"/>
</svg>
